<?xml version="1.0" encoding="UTF-8"?>
<!DOCTYPE svg PUBLIC "-//W3C//DTD SVG 1.1//EN" "http://www.w3.org/Graphics/SVG/1.1/DTD/svg11.dtd">
<svg xmlns="http://www.w3.org/2000/svg" version="1.1" width="350px" height="350px" style="shape-rendering:geometricPrecision; text-rendering:geometricPrecision; image-rendering:optimizeQuality; fill-rule:evenodd; clip-rule:evenodd" xmlns:xlink="http://www.w3.org/1999/xlink">
<g><path style="opacity:1" fill="#010101" d="M -0.5,-0.5 C 116.167,-0.5 232.833,-0.5 349.5,-0.5C 349.5,116.167 349.5,232.833 349.5,349.5C 232.833,349.5 116.167,349.5 -0.5,349.5C -0.5,232.833 -0.5,116.167 -0.5,-0.5 Z"/></g>
<g><path style="opacity:1" fill="#d9d7d5" d="M 156.5,13.5 C 225.664,9.49903 279.164,36.1657 317,93.5C 339.79,133.031 345.79,175.031 335,219.5C 317.839,277.994 280.339,316.827 222.5,336C 153.246,353.415 95.0794,335.581 48,282.5C 13.8517,238.439 3.18502,189.106 16,134.5C 33.4177,78.7489 69.5843,40.9156 124.5,21C 135.079,17.5198 145.746,15.0198 156.5,13.5 Z"/></g>
<g><path style="opacity:1" fill="#090909" d="M 163.5,15.5 C 222.19,13.9354 269.69,35.9354 306,81.5C 336.933,125.931 344.933,174.265 330,226.5C 306.721,291.436 260.887,328.936 192.5,339C 123.015,343.677 70.1813,316.51 34,257.5C 13.2863,218.078 8.28634,176.745 19,133.5C 36.7296,77.4369 73.5629,40.2702 129.5,22C 140.786,18.8494 152.12,16.6827 163.5,15.5 Z"/></g>
<g><path style="opacity:1" fill="#dfdfdf" d="M 152.5,25.5 C 217.188,19.5265 268.021,42.8599 305,95.5C 331.056,138.554 335.722,183.887 319,231.5C 298.265,282.563 261.099,314.729 207.5,328C 142.412,339.017 89.9115,318.517 50,266.5C 18.6002,217.995 13.9335,166.995 36,113.5C 60.3752,64.9502 99.2085,35.6169 152.5,25.5 Z"/></g>
<g><path style="opacity:1" fill="#1f1f1f" d="M 190.5,41.5 C 191.29,42.6085 191.79,43.9419 192,45.5C 196.816,41.4861 197.316,41.8195 193.5,46.5C 194.115,48.1161 195.115,49.4495 196.5,50.5C 194.282,51.1877 192.782,50.1877 192,47.5C 191.751,48.624 191.251,49.624 190.5,50.5C 189.357,47.5023 189.357,44.5023 190.5,41.5 Z"/></g>
<g><path style="opacity:1" fill="#242424" d="M 134.5,46.5 C 139.22,46.2254 139.554,47.0588 135.5,49C 137.037,51.3128 137.537,53.8128 137,56.5C 136.069,54.5405 135.236,52.5405 134.5,50.5C 133.271,49.7189 131.938,49.2189 130.5,49C 131.858,48.0656 133.192,47.2323 134.5,46.5 Z"/></g>
<g><path style="opacity:1" fill="#2f2f2f" d="M 172.5,40.5 C 180.301,41.6276 180.301,42.2943 172.5,42.5C 172.34,44.1992 172.506,45.8659 173,47.5C 174.889,48.0974 176.722,48.4307 178.5,48.5C 172.196,51.7122 169.696,49.7122 171,42.5C 171.717,41.9558 172.217,41.2891 172.5,40.5 Z"/></g>
<g><path style="opacity:1" fill="#1c1c1c" d="M 222.5,49.5 C 224.062,51.3717 225.062,53.7051 225.5,56.5C 233.688,50.5488 234.855,51.8821 229,60.5C 228.915,58.9154 228.749,57.5821 228.5,56.5C 227.167,57.5 225.833,58.5 224.5,59.5C 223.692,57.5767 223.192,55.5767 223,53.5C 222.417,55.0016 221.584,56.3349 220.5,57.5C 220.167,57.1667 219.833,56.8333 219.5,56.5C 220.788,54.2612 221.788,51.9279 222.5,49.5 Z"/></g>
<g><path style="opacity:1" fill="#252525" d="M 151.5,42.5 C 157.989,42.1563 159.989,44.9896 157.5,51C 149.749,52.0913 147.749,49.258 151.5,42.5 Z"/></g>
<g><path style="opacity:1" fill="#d0d0d0" d="M 153.5,43.5 C 155.722,43.5587 156.722,44.7253 156.5,47C 156.719,48.9713 155.885,50.1379 154,50.5C 150.88,48.5327 150.713,46.1993 153.5,43.5 Z"/></g>
<g><path style="opacity:1" fill="#292929" d="M 116.5,53.5 C 121.694,53.9417 121.694,54.9417 116.5,56.5C 118.423,57.3078 120.423,57.8078 122.5,58C 123.964,61.2409 122.798,63.0743 119,63.5C 117.941,63.3699 117.108,62.8699 116.5,62C 122.891,60.9301 122.725,59.7635 116,58.5C 115.36,56.735 115.527,55.0683 116.5,53.5 Z"/></g>
<g><path style="opacity:1" fill="#2e2e2e" d="M 245.5,60.5 C 247.918,63.4644 248.085,66.7977 246,70.5C 245.015,67.4153 242.848,65.9153 239.5,66C 241.763,64.383 243.763,62.5497 245.5,60.5 Z"/></g>
<g><path style="opacity:1" fill="#272727" d="M 101.5,62.5 C 102.239,62.369 102.906,62.5357 103.5,63C 102.643,63.6891 101.977,64.5224 101.5,65.5C 103.108,66.2421 104.775,66.4087 106.5,66C 105.272,66.779 104.272,67.779 103.5,69C 103.833,69.5 104.167,70 104.5,70.5C 105.5,69.8333 106.5,69.1667 107.5,68.5C 107.833,68.8333 108.167,69.1667 108.5,69.5C 104.807,73.5996 101.974,72.9329 100,67.5C 99.36,65.4567 99.86,63.7901 101.5,62.5 Z"/></g>
<g><path style="opacity:1" fill="#262626" d="M 260.5,70.5 C 261.317,72.9686 261.817,75.6353 262,78.5C 263.353,77.3147 264.52,75.9814 265.5,74.5C 265.833,74.8333 266.167,75.1667 266.5,75.5C 264.727,78.0599 262.727,80.3932 260.5,82.5C 259.686,80.2338 259.186,77.9005 259,75.5C 258,76.5 257,77.5 256,78.5C 255.833,78.1667 255.667,77.8333 255.5,77.5C 256.804,74.8699 258.47,72.5366 260.5,70.5 Z"/></g>
<g><path style="opacity:1" fill="#262626" d="M 88.5,72.5 C 91.1807,75.1918 92.5141,78.5252 92.5,82.5C 89.2857,81.5596 86.2857,80.0596 83.5,78C 86.096,77.542 88.2627,78.3754 90,80.5C 89.8471,77.8262 89.3471,75.1595 88.5,72.5 Z"/></g>
<g><path style="opacity:1" fill="#292929" d="M 73.5,86.5 C 76.4123,88.0663 79.079,90.0663 81.5,92.5C 80.9984,93.521 80.3317,93.6877 79.5,93C 77.1013,91.0198 75.1013,88.8531 73.5,86.5 Z"/></g>
<g><path style="opacity:1" fill="#202020" d="M 274.5,87.5 C 275.978,87.238 277.311,87.5713 278.5,88.5C 277.253,91.3286 275.753,93.9952 274,96.5C 274.083,92.7491 272.249,90.7491 268.5,90.5C 270.594,89.4824 272.594,88.4824 274.5,87.5 Z"/></g>
<g><path style="opacity:1" fill="#a9a9a9" d="M 273.5,89.5 C 276.907,89.1253 277.407,90.1253 275,92.5C 273.961,91.7562 273.461,90.7562 273.5,89.5 Z"/></g>
<g><path style="opacity:1" fill="#262626" d="M 283.5,102.5 C 285.527,102.338 287.527,102.505 289.5,103C 291.515,104.555 291.848,106.389 290.5,108.5C 289.756,107.009 289.09,105.509 288.5,104C 285,103.5 283.5,105 284,108.5C 285.395,109.815 286.395,109.481 287,107.5C 288.959,109.943 288.292,111.61 285,112.5C 283.596,110.606 282.43,108.606 281.5,106.5C 281.752,104.927 282.418,103.594 283.5,102.5 Z"/></g>
<g><path style="opacity:1" fill="#222222" d="M 63.5,100.5 C 65.8162,101.806 68.1495,103.139 70.5,104.5C 71.3333,103.5 72.1667,102.5 73,101.5C 73.2641,103.639 72.4308,105.306 70.5,106.5C 67.4219,105.163 65.0886,103.163 63.5,100.5 Z"/></g>
<g><path style="opacity:1" fill="#272727" d="M 295.5,119.5 C 299,119.495 300.5,121.162 300,124.5C 297.852,120.386 296.518,120.719 296,125.5C 295.632,124.09 294.799,123.09 293.5,122.5C 292.949,124.413 292.782,126.413 293,128.5C 291.477,126.431 290.643,124.097 290.5,121.5C 292.553,121.598 294.22,120.931 295.5,119.5 Z"/></g>
<g><path style="opacity:1" fill="#2b2b2b" d="M 302.5,136.5 C 303.675,136.281 304.675,136.614 305.5,137.5C 304.018,139.483 302.351,141.316 300.5,143C 302.804,143.895 305.138,144.729 307.5,145.5C 304.635,147.471 301.635,148.137 298.5,147.5C 302.141,146.013 301.808,144.679 297.5,143.5C 298.313,142.186 299.313,141.019 300.5,140C 299.167,139.667 297.833,139.333 296.5,139C 298.611,138.155 300.611,137.322 302.5,136.5 Z"/></g>
<g><path style="opacity:1" fill="#434343" d="M 76.5,151.5 C 71.1667,150.167 65.8333,150.167 60.5,151.5C 58.8211,151.108 57.1545,150.608 55.5,150C 64.5,149.333 73.5,149.333 82.5,150C 80.4817,150.505 78.4817,151.005 76.5,151.5 Z"/></g>
<g><path style="opacity:1" fill="#232323" d="M 228.5,149.5 C 235.473,148.074 242.473,148.574 249.5,151C 253.016,152.256 256.016,154.256 258.5,157C 255.667,161.167 252.833,165.333 250,169.5C 249.134,156.136 241.967,149.469 228.5,149.5 Z"/></g>
<g><path style="opacity:1" fill="#191919" d="M 60.5,151.5 C 65.8333,150.167 71.1667,150.167 76.5,151.5C 76.1667,152.167 75.8333,152.833 75.5,153.5C 74.5029,173.326 74.1695,193.326 74.5,213.5C 68.9738,213.821 63.6405,213.488 58.5,212.5C 59.9073,210.692 61.074,208.692 62,206.5C 62.6667,188.5 62.6667,170.5 62,152.5C 61.6174,151.944 61.1174,151.611 60.5,151.5 Z"/></g>
<g><path style="opacity:1" fill="#1d1d1d" d="M 159.5,197.5 C 160.167,197.5 160.5,197.833 160.5,198.5C 158.437,203.85 156.271,209.183 154,214.5C 145.231,197.963 136.731,181.296 128.5,164.5C 128.631,163.624 128.298,162.957 127.5,162.5C 126.175,175.327 126.175,187.994 127.5,200.5C 126.913,206.266 128.913,210.766 133.5,214C 128.5,214.667 123.5,214.667 118.5,214C 121.973,213.193 124.14,211.027 125,207.5C 125.667,190.833 125.667,174.167 125,157.5C 123.207,154.705 121.04,152.205 118.5,150C 123.864,149.171 129.198,149.337 134.5,150.5C 142.839,166.88 151.172,182.547 159.5,197.5 Z"/></g>
<g><path style="opacity:1" fill="#1c1c1c" d="M 194.5,212.5 C 188.833,213.833 183.167,213.833 177.5,212.5C 178.906,212.027 179.573,211.027 179.5,209.5C 180.166,200.506 180.5,191.34 180.5,182C 180.474,172.271 179.807,162.771 178.5,153.5C 178.33,152.178 178.663,151.011 179.5,150C 185.833,149.333 192.167,149.333 198.5,150C 196.481,150.45 194.648,151.283 193,152.5C 192.333,172.167 192.333,191.833 193,211.5C 193.383,212.056 193.883,212.389 194.5,212.5 Z"/></g>
<g><path style="opacity:1" fill="#1e1e1e" d="M 247.5,212.5 C 247.5,211.833 247.5,211.167 247.5,210.5C 252.924,202.018 251.257,195.518 242.5,191C 233.946,189.372 225.946,186.372 218.5,182C 208.354,172.556 208.021,162.889 217.5,153C 220.438,150.575 223.772,149.575 227.5,150C 219.121,154.091 217.288,160.258 222,168.5C 224.408,170.956 227.241,172.789 230.5,174C 237.764,175.565 244.764,177.899 251.5,181C 262.112,190.926 262.112,200.926 251.5,211C 250.255,211.791 248.922,212.291 247.5,212.5 Z"/></g>
<g><path style="opacity:1" fill="#2c2c2c" d="M 300.5,159.5 C 303.833,159.5 307.167,159.5 310.5,159.5C 310.675,165.697 309.675,166.363 307.5,161.5C 306.224,166.682 305.557,166.682 305.5,161.5C 304.5,161.5 303.5,161.5 302.5,161.5C 302.66,163.199 302.494,164.866 302,166.5C 300.648,164.406 300.148,162.073 300.5,159.5 Z"/></g>
<g><path style="opacity:1" fill="#444444" d="M 128.5,164.5 C 127.505,176.322 127.172,188.322 127.5,200.5C 126.175,187.994 126.175,175.327 127.5,162.5C 128.298,162.957 128.631,163.624 128.5,164.5 Z"/></g>
<g><path style="opacity:1" fill="#313131" d="M 301.5,177.5 C 304.572,177.183 307.572,177.516 310.5,178.5C 309.252,180.459 307.585,181.959 305.5,183C 307.256,183.202 308.922,183.702 310.5,184.5C 307.5,185.833 304.5,185.833 301.5,184.5C 302.748,182.541 304.415,181.041 306.5,180C 304.256,179.95 302.589,179.117 301.5,177.5 Z"/></g>
<g><path style="opacity:1" fill="#2f2f2f" d="M 178.5,153.5 C 179.807,162.771 180.474,172.271 180.5,182C 180.5,191.34 180.166,200.506 179.5,209.5C 179.667,191.497 179.5,173.497 179,155.5C 172.906,169.975 166.739,184.309 160.5,198.5C 160.5,197.833 160.167,197.5 159.5,197.5C 165.322,182.532 171.655,167.866 178.5,153.5 Z"/></g>
<g><path style="opacity:1" fill="#202020" d="M 232.5,213.5 C 230.052,214.473 227.385,214.806 224.5,214.5C 218.498,213.666 213.498,211 209.5,206.5C 211.75,202.332 214.25,198.332 217,194.5C 217.65,204.64 222.817,210.973 232.5,213.5 Z"/></g>
<g><path style="opacity:1" fill="#1f1f1f" d="M 103.5,214.5 C 98.5,213.833 93.5,213.167 88.5,212.5C 92.1055,212.201 95.4388,211.035 98.5,209C 102.702,205.133 106.535,200.967 110,196.5C 109.008,202.479 107.674,208.479 106,214.5C 105.023,215.774 104.189,215.774 103.5,214.5 Z"/></g>
<g><path style="opacity:1" fill="#282828" d="M 307.5,197.5 C 308.895,199.847 308.728,202.181 307,204.5C 306.517,203.552 306.351,202.552 306.5,201.5C 303.941,201.61 301.608,200.944 299.5,199.5C 301.44,198.472 303.44,198.472 305.5,199.5C 306.713,199.253 307.38,198.586 307.5,197.5 Z"/></g>
<g><path style="opacity:1" fill="#4e4e4e" d="M 75.5,153.5 C 75.5,173.167 75.5,192.833 75.5,212.5C 79.8333,212.5 84.1667,212.5 88.5,212.5C 93.5,213.167 98.5,213.833 103.5,214.5C 87.4965,214.667 71.4965,214.5 55.5,214C 56.2438,212.961 57.2438,212.461 58.5,212.5C 63.6405,213.488 68.9738,213.821 74.5,213.5C 74.1695,193.326 74.5029,173.326 75.5,153.5 Z"/></g>
<g><path style="opacity:1" fill="#434343" d="M 177.5,212.5 C 183.167,213.833 188.833,213.833 194.5,212.5C 195.473,212.987 196.473,213.487 197.5,214C 189.167,214.667 180.833,214.667 172.5,214C 174.247,213.648 175.914,213.148 177.5,212.5 Z"/></g>
<g><path style="opacity:1" fill="#4b4b4b" d="M 247.5,210.5 C 247.5,211.167 247.5,211.833 247.5,212.5C 245.852,213.927 243.852,214.76 241.5,215C 235.651,215.818 229.985,215.652 224.5,214.5C 227.385,214.806 230.052,214.473 232.5,213.5C 237.965,214.227 242.965,213.227 247.5,210.5 Z"/></g>
<g><path style="opacity:1" fill="#272727" d="M 291.5,225.5 C 292.376,225.369 293.043,225.702 293.5,226.5C 291.711,227.623 291.378,228.956 292.5,230.5C 296.959,226.062 298.959,227.062 298.5,233.5C 294.944,233.725 294.61,232.892 297.5,231C 297.167,230.5 296.833,230 296.5,229.5C 290.017,234.014 288.35,232.681 291.5,225.5 Z"/></g>
<g><path style="opacity:1" fill="#2d2d2d" d="M 286.5,248.5 C 284.906,247.017 283.24,245.517 281.5,244C 284.827,244.001 288.16,244.501 291.5,245.5C 289.345,246.001 287.678,247.001 286.5,248.5 Z"/></g>
<g><path style="opacity:1" fill="#4d4d4d" d="M 286.5,248.5 C 288.332,249.14 288.665,250.14 287.5,251.5C 286.614,250.675 286.281,249.675 286.5,248.5 Z"/></g>
<g><path style="opacity:1" fill="#272727" d="M 272.5,255.5 C 273.675,255.281 274.675,255.614 275.5,256.5C 273.851,257.148 272.518,258.148 271.5,259.5C 273.365,260.666 275.032,260.333 276.5,258.5C 280.079,260.16 280.412,262.327 277.5,265C 276.365,265.749 275.365,265.583 274.5,264.5C 275.325,263.614 276.325,263.281 277.5,263.5C 277.719,262.325 277.386,261.325 276.5,260.5C 270.383,263.157 269.049,261.491 272.5,255.5 Z"/></g>
<g><path style="opacity:1" fill="#2f2f2f" d="M 258.5,269.5 C 261.075,270.728 263.408,272.395 265.5,274.5C 267.127,273.081 267.627,273.414 267,275.5C 265.981,276.687 264.814,277.687 263.5,278.5C 262.289,277.726 262.289,276.893 263.5,276C 261.452,274.044 259.786,271.877 258.5,269.5 Z"/></g>
<g><path style="opacity:1" fill="#2b2b2b" d="M 246.5,278.5 C 249.144,280.153 251.144,282.487 252.5,285.5C 251.379,288.047 249.712,289.047 247.5,288.5C 248.737,287.719 249.737,286.719 250.5,285.5C 248.741,284.246 247.241,284.579 246,286.5C 246.783,284.655 247.116,282.655 247,280.5C 245.867,282.211 244.367,282.711 242.5,282C 244.093,281.051 245.426,279.885 246.5,278.5 Z"/></g>
<g><path style="opacity:1" fill="#272727" d="M 232.5,287.5 C 234.995,290.122 235.995,293.122 235.5,296.5C 233.807,294.973 231.973,293.64 230,292.5C 229.814,294.9 229.314,297.234 228.5,299.5C 226.474,297.295 224.808,294.795 223.5,292C 225.409,291.552 226.576,292.385 227,294.5C 227.156,288.564 229.156,287.897 233,292.5C 232.981,290.893 232.815,289.226 232.5,287.5 Z"/></g>
</svg>
