<?xml version="1.0" encoding="UTF-8"?>
<!DOCTYPE svg PUBLIC "-//W3C//DTD SVG 1.1//EN" "http://www.w3.org/Graphics/SVG/1.1/DTD/svg11.dtd">
<svg xmlns="http://www.w3.org/2000/svg" version="1.1" width="491px" height="271px" style="shape-rendering:geometricPrecision; text-rendering:geometricPrecision; image-rendering:optimizeQuality; fill-rule:evenodd; clip-rule:evenodd" xmlns:xlink="http://www.w3.org/1999/xlink">
<g><path style="opacity:1" fill="#1a4d2e" d="M -0.5,-0.5 C 163.167,-0.5 326.833,-0.5 490.5,-0.5C 490.5,89.8333 490.5,180.167 490.5,270.5C 326.833,270.5 163.167,270.5 -0.5,270.5C -0.5,180.167 -0.5,89.8333 -0.5,-0.5 Z"/></g>
<g><path style="opacity:1" fill="#d8ddd7" d="M 329.5,23.5 C 386.775,19.7057 427.941,43.3724 453,94.5C 471.026,145.558 460.526,189.724 421.5,227C 385.944,255.326 346.61,261.993 303.5,247C 248.433,220.864 224.599,177.364 232,116.5C 245.498,65.5006 277.998,34.5006 329.5,23.5 Z"/></g>
<g><path style="opacity:1" fill="#205133" d="M 330.5,25.5 C 388.67,21.8977 429.504,46.5644 453,99.5C 467.572,146.667 457.739,187.834 423.5,223C 385.028,254.497 342.695,260.83 296.5,242C 246.823,214.477 225.99,172.31 234,115.5C 247.396,65.2679 279.562,35.2679 330.5,25.5 Z"/></g>
<g><path style="opacity:1" fill="#dfdfdf" d="M 330.5,31.5 C 381.83,28.0716 419.663,48.7382 444,93.5C 460.998,135.861 455.331,174.861 427,210.5C 394.433,244.018 355.599,254.185 310.5,241C 268.745,224.571 244.912,194.071 239,149.5C 236.698,96.8186 259.531,59.6519 307.5,38C 315.313,35.8896 322.979,33.7229 330.5,31.5 Z"/></g>
<g><path style="opacity:1" fill="#4c4c4c" d="M 414.5,75.5 C 415.978,75.238 417.311,75.5713 418.5,76.5C 417.752,78.3325 416.752,79.9991 415.5,81.5C 414.304,81.1543 414.304,80.6543 415.5,80C 414.241,79.0766 412.908,78.2432 411.5,77.5C 412.602,76.8243 413.602,76.1577 414.5,75.5 Z"/></g>
<g><path style="opacity:1" fill="#4c4c4c" d="M 274.5,74.5 C 276.649,75.7476 278.649,77.2476 280.5,79C 277.276,79.2142 275.276,77.7142 274.5,74.5 Z"/></g>
<g><path style="opacity:1" fill="#2b2b2b" d="M 284.5,70.5 C 285.239,70.631 285.906,70.4643 286.5,70C 285.235,68.6626 284.735,67.1626 285,65.5C 287.26,67.5301 287.76,69.8634 286.5,72.5C 285.478,72.1445 284.811,71.4778 284.5,70.5 Z"/></g>
<g><path style="opacity:1" fill="#131313" d="M 407.5,69.5 C 407.217,70.2891 406.717,70.9558 406,71.5C 405.667,69.8333 405.333,68.1667 405,66.5C 404.346,67.6956 403.846,67.6956 403.5,66.5C 404.145,65.354 404.978,64.354 406,63.5C 406.191,65.7078 406.691,67.7078 407.5,69.5 Z"/></g>
<g><path style="opacity:1" fill="#272727" d="M 284.5,70.5 C 283.244,70.5386 282.244,70.0386 281.5,69C 282.998,68.4153 283.998,68.9153 284.5,70.5 Z"/></g>
<g><path style="opacity:1" fill="#353535" d="M 407.5,69.5 C 407.511,67.3141 408.511,66.4808 410.5,67C 409.627,68.045 408.627,68.8783 407.5,69.5 Z"/></g>
<g><path style="opacity:1" fill="#313131" d="M 292.5,58.5 C 293.239,58.369 293.906,58.5357 294.5,59C 293.304,59.6543 293.304,60.1543 294.5,60.5C 295.451,59.6744 296.451,59.5078 297.5,60C 294.707,62.7344 295.041,63.7344 298.5,63C 297.289,64.5778 295.955,64.7445 294.5,63.5C 293.05,62.1502 292.383,60.4835 292.5,58.5 Z"/></g>
<g><path style="opacity:1" fill="#484848" d="M 395.5,56.5 C 396.797,58.6934 396.797,61.0268 395.5,63.5C 393.999,62.2485 392.332,61.2485 390.5,60.5C 392.21,59.1128 393.877,57.7794 395.5,56.5 Z"/></g>
<g><path style="opacity:1" fill="#838383" d="M 380.5,49.5 C 381.167,50.8333 381.833,52.1667 382.5,53.5C 383.167,54.5 383.833,55.5 384.5,56.5C 384.44,57.0431 384.107,57.3764 383.5,57.5C 382.818,56.7573 382.151,56.0906 381.5,55.5C 380.659,53.6208 380.325,51.6208 380.5,49.5 Z"/></g>
<g><path style="opacity:1" fill="#444444" d="M 304.5,51.5 C 305.675,51.281 306.675,51.6143 307.5,52.5C 306.471,52.2964 305.471,52.7964 304.5,54C 306.134,54.4935 307.801,54.6602 309.5,54.5C 309.824,57.6802 308.49,58.8469 305.5,58C 306.308,57.6924 306.975,57.1924 307.5,56.5C 306.311,55.5713 304.978,55.238 303.5,55.5C 303.433,54.0413 303.766,52.7079 304.5,51.5 Z"/></g>
<g><path style="opacity:1" fill="#292929" d="M 380.5,49.5 C 380.325,51.6208 380.659,53.6208 381.5,55.5C 380.069,55.1193 379.236,54.1193 379,52.5C 378.444,54.5951 377.944,54.7618 377.5,53C 377.862,51.7753 378.362,50.6086 379,49.5C 379.69,48.2617 380.19,48.2617 380.5,49.5 Z"/></g>
<g><path style="opacity:1" fill="#212121" d="M 384.5,56.5 C 383.833,55.5 383.167,54.5 382.5,53.5C 383.14,51.668 384.14,51.3347 385.5,52.5C 384.754,53.7362 384.421,55.0695 384.5,56.5 Z"/></g>
<g><path style="opacity:1" fill="#404040" d="M 356.5,43.5 C 357.222,43.9175 357.722,44.5842 358,45.5C 362.444,42.9918 362.611,43.4918 358.5,47C 362.611,50.5082 362.444,51.0082 358,48.5C 357.586,48.9574 357.086,49.2907 356.5,49.5C 355.769,47.5988 355.769,45.5988 356.5,43.5 Z"/></g>
<g><path style="opacity:1" fill="#3f3f3f" d="M 329.5,43.5 C 333.935,43.7521 335.268,45.9188 333.5,50C 328.57,50.427 327.237,48.2604 329.5,43.5 Z"/></g>
<g><path style="opacity:1" fill="#4c4c4c" d="M 343.5,42.5 C 345.429,42.2308 347.095,42.7308 348.5,44C 345.201,42.6571 343.534,43.8238 343.5,47.5C 345.199,47.3398 346.866,47.5065 348.5,48C 342.756,50.3873 341.09,48.554 343.5,42.5 Z"/></g>
<g><path style="opacity:1" fill="#363636" d="M 316.5,46.5 C 317.552,46.3505 318.552,46.5172 319.5,47C 318.848,49.0905 318.681,51.2571 319,53.5C 318.196,51.0558 316.696,49.2225 314.5,48C 315.416,47.7216 316.082,47.2216 316.5,46.5 Z"/></g>
<g><path style="opacity:1" fill="#d6d6d6" d="M 329.5,45.5 C 330.5,45.5 331.5,45.5 332.5,45.5C 332.762,46.9778 332.429,48.3112 331.5,49.5C 329.889,48.6798 329.222,47.3464 329.5,45.5 Z"/></g>
<g><path style="opacity:1" fill="#373737" d="M 422.5,85.5 C 426.138,84.7366 427.638,86.0699 427,89.5C 426.424,86.8758 425.09,86.2092 423,87.5C 422.333,88.5 422.333,89.5 423,90.5C 423.893,89.2888 424.726,89.2888 425.5,90.5C 423.258,93.0745 421.591,92.5745 420.5,89C 420.978,87.6974 421.645,86.5307 422.5,85.5 Z"/></g>
<g><path style="opacity:1" fill="#303030" d="M 267.5,86.5 C 270.075,87.0731 272.409,87.0731 274.5,86.5C 273.855,87.646 273.022,88.646 272,89.5C 270.729,88.1175 269.229,87.1175 267.5,86.5 Z"/></g>
<g><path style="opacity:1" fill="#313131" d="M 431.5,97.5 C 432.837,98.3149 433.837,99.4815 434.5,101C 433.258,101.311 432.258,100.811 431.5,99.5C 431.089,100.262 430.923,101.262 431,102.5C 429.221,99.7236 428.221,100.057 428,103.5C 427.5,102.5 427,101.5 426.5,100.5C 428.145,99.3037 429.811,98.3037 431.5,97.5 Z"/></g>
<g><path style="opacity:1" fill="#3a3a3a" d="M 431.5,110.5 C 437.193,109.616 438.193,110.782 434.5,114C 435.833,114.667 437.167,115.333 438.5,116C 436.705,117.488 434.705,118.154 432.5,118C 433.815,116.605 433.481,115.605 431.5,115C 432.167,114.333 432.833,113.667 433.5,113C 432.244,112.583 431.577,111.75 431.5,110.5 Z"/></g>
<g><path style="opacity:1" fill="#8a8a8a" d="M 391.5,118.5 C 389.901,118.232 388.568,118.566 387.5,119.5C 385.167,119.5 382.833,119.5 380.5,119.5C 384.044,117.431 387.71,117.098 391.5,118.5 Z"/></g>
<g><path style="opacity:1" fill="#707070" d="M 276.5,120.5 C 272.833,119.167 269.167,119.167 265.5,120.5C 264.078,120.291 262.745,119.791 261.5,119C 267.833,118.333 274.167,118.333 280.5,119C 279.255,119.791 277.922,120.291 276.5,120.5 Z"/></g>
<g><path style="opacity:1" fill="#6f6f6f" d="M 317.5,119.5 C 313.958,119.187 310.625,119.521 307.5,120.5C 306.957,120.44 306.624,120.107 306.5,119.5C 310.315,118.192 313.981,118.192 317.5,119.5 Z"/></g>
<g><path style="opacity:1" fill="#727272" d="M 348.5,119.5 C 352.981,118.352 357.648,118.185 362.5,119C 361.473,119.513 360.473,120.013 359.5,120.5C 356.038,119.518 352.371,119.185 348.5,119.5 Z"/></g>
<g><path style="opacity:1" fill="#222222" d="M 387.5,119.5 C 388.568,118.566 389.901,118.232 391.5,118.5C 396.545,118.69 400.878,120.523 404.5,124C 402.542,126.748 400.709,129.582 399,132.5C 398.141,125.477 394.308,121.144 387.5,119.5 Z"/></g>
<g><path style="opacity:1" fill="#1c1c1c" d="M 276.5,120.5 C 275.504,134.657 275.171,148.99 275.5,163.5C 286.374,164.936 294.541,160.936 300,151.5C 299.298,156.3 297.965,160.967 296,165.5C 284.576,164.678 273.076,164.178 261.5,164C 263.667,163.167 265.167,161.667 266,159.5C 266.813,146.425 266.646,133.425 265.5,120.5C 269.167,119.167 272.833,119.167 276.5,120.5 Z"/></g>
<g><path style="opacity:1" fill="#1e1e1e" d="M 317.5,119.5 C 323.103,130.373 328.437,141.373 333.5,152.5C 333.842,153.338 334.508,153.672 335.5,153.5C 334.013,157.145 332.513,160.812 331,164.5C 324.628,153.09 318.795,141.423 313.5,129.5C 312.341,128.26 311.341,126.926 310.5,125.5C 309.925,123.589 308.925,121.922 307.5,120.5C 310.625,119.521 313.958,119.187 317.5,119.5 Z"/></g>
<g><path style="opacity:1" fill="#1b1b1b" d="M 348.5,119.5 C 352.371,119.185 356.038,119.518 359.5,120.5C 358.883,120.611 358.383,120.944 358,121.5C 357.333,134.833 357.333,148.167 358,161.5C 359.171,162.893 360.671,163.727 362.5,164C 356.5,164.667 350.5,164.667 344.5,164C 346.32,163.8 347.653,162.966 348.5,161.5C 349.66,148.673 349.827,135.673 349,122.5C 348.487,123.527 347.987,124.527 347.5,125.5C 346.674,128.485 345.341,131.151 343.5,133.5C 344.769,128.693 346.436,124.027 348.5,119.5 Z"/></g>
<g><path style="opacity:1" fill="#202020" d="M 380.5,119.5 C 377.139,123.396 376.639,127.729 379,132.5C 380.579,134.041 382.413,135.208 384.5,136C 393.233,136.612 400.066,140.446 405,147.5C 406.185,155.469 403.018,160.803 395.5,163.5C 395.5,163.167 395.5,162.833 395.5,162.5C 396.79,161.942 397.623,160.942 398,159.5C 399.724,154.269 398.224,150.435 393.5,148C 388.408,146.583 383.408,144.916 378.5,143C 369.832,137.321 368.499,130.321 374.5,122C 376.217,120.441 378.217,119.608 380.5,119.5 Z"/></g>
<g><path style="opacity:1" fill="#7f7f7f" d="M 348.5,161.5 C 348.828,149.322 348.495,137.322 347.5,125.5C 347.987,124.527 348.487,123.527 349,122.5C 349.827,135.673 349.66,148.673 348.5,161.5 Z"/></g>
<g><path style="opacity:1" fill="#1f1f1f" d="M 434.5,126.5 C 436.099,126.232 437.432,126.566 438.5,127.5C 438.404,131.311 437.738,131.311 436.5,127.5C 434.998,131.374 434.331,131.041 434.5,126.5 Z"/></g>
<g><path style="opacity:1" fill="#686868" d="M 434.5,126.5 C 436.607,125.532 438.941,125.198 441.5,125.5C 441.651,130.614 440.651,131.281 438.5,127.5C 437.432,126.566 436.099,126.232 434.5,126.5 Z"/></g>
<g><path style="opacity:1" fill="#575757" d="M 310.5,125.5 C 311.341,126.926 312.341,128.26 313.5,129.5C 312.507,138.318 312.173,147.318 312.5,156.5C 311.833,157.167 311.167,157.833 310.5,158.5C 310.5,147.5 310.5,136.5 310.5,125.5 Z"/></g>
<g><path style="opacity:1" fill="#434343" d="M 434.5,139.5 C 436.693,138.203 439.027,138.203 441.5,139.5C 440.5,140.333 439.5,141.167 438.5,142C 439.624,142.249 440.624,142.749 441.5,143.5C 439.167,144.833 436.833,144.833 434.5,143.5C 435.605,142.108 436.939,140.941 438.5,140C 437.207,139.51 435.873,139.343 434.5,139.5 Z"/></g>
<g><path style="opacity:1" fill="#424242" d="M 343.5,133.5 C 341.403,140.47 338.737,147.136 335.5,153.5C 334.508,153.672 333.842,153.338 333.5,152.5C 334.497,152.53 335.164,152.03 335.5,151C 337.805,144.897 340.472,139.064 343.5,133.5 Z"/></g>
<g><path style="opacity:1" fill="#242424" d="M 385.5,163.5 C 384.081,164.451 382.415,164.784 380.5,164.5C 376.309,163.738 372.642,161.904 369.5,159C 371.458,156.252 373.291,153.418 375,150.5C 375.794,157.118 379.294,161.451 385.5,163.5 Z"/></g>
<g><path style="opacity:1" fill="#373737" d="M 438.5,152.5 C 439.376,152.369 440.043,152.702 440.5,153.5C 439.902,154.795 439.402,156.128 439,157.5C 437.47,156.08 435.637,155.08 433.5,154.5C 435.006,153.253 436.506,153.253 438,154.5C 438.464,153.906 438.631,153.239 438.5,152.5 Z"/></g>
<g><path style="opacity:1" fill="#232323" d="M 312.5,156.5 C 312.146,159.961 313.479,162.461 316.5,164C 313.167,164.667 309.833,164.667 306.5,164C 309.215,163.125 310.548,161.292 310.5,158.5C 311.167,157.833 311.833,157.167 312.5,156.5 Z"/></g>
<g><path style="opacity:1" fill="#565656" d="M 395.5,162.5 C 395.5,162.833 395.5,163.167 395.5,163.5C 392.814,164.991 389.814,165.657 386.5,165.5C 384.304,165.495 382.304,165.162 380.5,164.5C 382.415,164.784 384.081,164.451 385.5,163.5C 388.943,164.749 392.277,164.416 395.5,162.5 Z"/></g>
<g><path style="opacity:1" fill="#2f2f2f" d="M 427.5,172.5 C 428.239,172.369 428.906,172.536 429.5,173C 427.993,173.837 427.493,175.004 428,176.5C 429.11,174.963 430.61,174.297 432.5,174.5C 432.762,175.978 432.429,177.311 431.5,178.5C 431.089,177.738 430.923,176.738 431,175.5C 429.89,177.037 428.39,177.703 426.5,177.5C 426.366,175.708 426.699,174.042 427.5,172.5 Z"/></g>
<g><path style="opacity:1" fill="#343434" d="M 420.5,184.5 C 422.606,185.783 424.94,186.616 427.5,187C 426.5,187.333 425.5,187.667 424.5,188C 425.451,188.718 425.617,189.551 425,190.5C 423.612,188.298 422.112,186.298 420.5,184.5 Z"/></g>
<g><path style="opacity:1" fill="#4e4e4e" d="M 414.5,193.5 C 416.842,193.775 416.842,194.608 414.5,196C 416.075,195.621 417.575,195.788 419,196.5C 419.058,199.628 418.225,199.962 416.5,197.5C 412.234,198.305 411.567,196.971 414.5,193.5 Z"/></g>
<g><path style="opacity:1" fill="#363636" d="M 404.5,204.5 C 404.56,203.957 404.893,203.624 405.5,203.5C 406.648,205.149 407.981,206.649 409.5,208C 408.667,208.833 407.833,209.667 407,210.5C 407.541,208.125 406.708,206.125 404.5,204.5 Z"/></g>
<g><path style="opacity:1" fill="#343434" d="M 395.5,211.5 C 395.897,210.475 396.563,210.308 397.5,211C 401.856,214.223 401.522,216.223 396.5,217C 399.277,214.827 399.11,214.327 396,215.5C 395.544,214.256 396.044,213.423 397.5,213C 396.956,212.283 396.289,211.783 395.5,211.5 Z"/></g>
<g><path style="opacity:1" fill="#272727" d="M 385.5,219.5 C 386.074,218.472 386.407,217.472 386.5,216.5C 387.942,218.316 388.442,220.316 388,222.5C 386.955,221.627 386.122,220.627 385.5,219.5 Z"/></g>
<g><path style="opacity:1" fill="#353535" d="M 385.5,219.5 C 383.883,220.589 383.05,222.256 383,224.5C 381.916,223.335 381.083,222.002 380.5,220.5C 380.846,219.304 381.346,219.304 382,220.5C 382.628,217.046 383.795,216.713 385.5,219.5 Z"/></g>
</svg>
