<?xml version="1.0" encoding="UTF-8"?>
<!DOCTYPE svg PUBLIC "-//W3C//DTD SVG 1.1//EN" "http://www.w3.org/Graphics/SVG/1.1/DTD/svg11.dtd">
<svg xmlns="http://www.w3.org/2000/svg" version="1.1" width="500px" height="500px" style="shape-rendering:geometricPrecision; text-rendering:geometricPrecision; image-rendering:optimizeQuality; fill-rule:evenodd; clip-rule:evenodd" xmlns:xlink="http://www.w3.org/1999/xlink">
<g><path style="opacity:0.12" fill="#d3d9d5" d="M 295.5,61.5 C 283.205,60.1439 270.871,59.1439 258.5,58.5C 244.061,59.1912 229.727,60.6912 215.5,63C 204.672,66.535 194.006,70.3683 183.5,74.5C 201.22,64.9962 220.22,59.4962 240.5,58C 253.36,56.686 266.36,56.686 279.5,58C 285.037,58.8468 290.37,60.0135 295.5,61.5 Z"/></g>
<g><path style="opacity:0.144" fill="#d5dcd7" d="M 303.5,63.5 C 306.698,62.9644 309.365,63.631 311.5,65.5C 309.5,65.1667 307.5,64.8333 305.5,64.5C 304.508,64.6716 303.842,64.3382 303.5,63.5 Z"/></g>
<g><path style="opacity:0.263" fill="#d0d7d4" d="M 311.5,65.5 C 314.811,65.3072 317.478,66.3072 319.5,68.5C 316.603,67.871 313.936,66.871 311.5,65.5 Z"/></g>
<g><path style="opacity:0.996" fill="#7f9286" d="M 321.5,68.5 C 327.804,70.6557 333.804,73.3224 339.5,76.5C 332.533,75.6187 326.533,72.9521 321.5,68.5 Z"/></g>
<g><path style="opacity:0.267" fill="#ced5d0" d="M 183.5,74.5 C 181.211,76.3873 178.545,77.7206 175.5,78.5C 177.579,76.127 180.246,74.7936 183.5,74.5 Z"/></g>
<g><path style="opacity:0.988" fill="#9aaca0" d="M 175.5,78.5 C 173.911,81.0797 171.578,82.413 168.5,82.5C 170.336,80.412 172.669,79.0787 175.5,78.5 Z"/></g>
<g><path style="opacity:0.127" fill="#e4e8e5" d="M 364.5,91.5 C 365.5,91.5 366.5,91.5 367.5,91.5C 367.5,92.5 367.5,93.5 367.5,94.5C 366.167,93.8333 365.167,92.8333 364.5,91.5 Z"/></g>
<g><path style="opacity:0.102" fill="#ecefed" d="M 368.5,94.5 C 369.5,94.5 370.5,94.5 371.5,94.5C 371.5,95.5 371.5,96.5 371.5,97.5C 370.167,96.8333 369.167,95.8333 368.5,94.5 Z"/></g>
<g><path style="opacity:0.09" fill="#f5f7f6" d="M 373.5,98.5 C 374.833,98.5 375.5,99.1667 375.5,100.5C 374.5,100.167 373.833,99.5 373.5,98.5 Z"/></g>
<g><path style="opacity:0.42" fill="#e6eae8" d="M 166.5,83.5 C 160.078,88.5567 153.411,93.39 146.5,98C 139.298,105.369 131.965,112.536 124.5,119.5C 135.319,103.762 149.319,91.7617 166.5,83.5 Z"/></g>
<g><path style="opacity:0.588" fill="#c1c9c4" d="M 124.5,119.5 C 124.573,121.027 123.906,122.027 122.5,122.5C 122.427,120.973 123.094,119.973 124.5,119.5 Z"/></g>
<g><path style="opacity:0.234" fill="#f0f2f1" d="M 397.5,122.5 C 399.048,122.821 399.715,123.821 399.5,125.5C 398.599,124.71 397.932,123.71 397.5,122.5 Z"/></g>
<g><path style="opacity:0.244" fill="#e9eeeb" d="M 401.5,127.5 C 403.048,127.821 403.715,128.821 403.5,130.5C 402.094,130.027 401.427,129.027 401.5,127.5 Z"/></g>
<g><path style="opacity:0.152" fill="#edf0ee" d="M 404.5,132.5 C 405.5,132.5 406.5,132.5 407.5,132.5C 407.5,133.833 407.5,135.167 407.5,136.5C 406.512,135.205 405.512,133.872 404.5,132.5 Z"/></g>
<g><path style="opacity:0.163" fill="#e9edea" d="M 408.5,138.5 C 409.5,138.5 410.5,138.5 411.5,138.5C 411.5,139.833 411.5,141.167 411.5,142.5C 410.512,141.205 409.512,139.872 408.5,138.5 Z"/></g>
<g><path style="opacity:0.176" fill="#e4eae6" d="M 413.5,145.5 C 415.176,146.183 415.843,147.517 415.5,149.5C 414.326,148.486 413.66,147.153 413.5,145.5 Z"/></g>
<g><path style="opacity:0.306" fill="#dfe8e3" d="M 421.5,162.5 C 423.048,162.821 423.715,163.821 423.5,165.5C 422.599,164.71 421.932,163.71 421.5,162.5 Z"/></g>
<g><path style="opacity:0.225" fill="#e8efeb" d="M 425.5,170.5 C 427.256,171.552 427.923,173.219 427.5,175.5C 426.069,174.22 425.402,172.553 425.5,170.5 Z"/></g>
<g><path style="opacity:0.063" fill="#ebeeec" d="M 120.5,124.5 C 101.91,149.349 89.5767,177.016 83.5,207.5C 84.9105,191.764 89.0771,176.764 96,162.5C 99.8249,154.181 104.158,146.181 109,138.5C 112.32,133.353 116.153,128.686 120.5,124.5 Z"/></g>
<g><path style="opacity:0.374" fill="#e5ede7" d="M 429.5,183.5 C 431.256,184.552 431.923,186.219 431.5,188.5C 430.463,187.07 429.796,185.403 429.5,183.5 Z"/></g>
<g><path style="opacity:0.416" fill="#e9f0ec" d="M 433.5,198.5 C 435.388,200.988 436.055,203.988 435.5,207.5C 434.656,204.655 433.99,201.655 433.5,198.5 Z"/></g>
<g><path style="opacity:0.304" fill="#fcfefd" d="M 437.5,228.5 C 438.814,230.915 439.481,233.748 439.5,237C 439.481,240.252 438.814,243.085 437.5,245.5C 437.5,239.833 437.5,234.167 437.5,228.5 Z"/></g>
<g><path style="opacity:1" fill="#275036" d="M 295.5,61.5 C 298.428,61.5651 301.095,62.2318 303.5,63.5C 303.842,64.3382 304.508,64.6716 305.5,64.5C 307.289,66.0072 309.289,67.3405 311.5,68.5C 306.025,69.4721 300.692,68.8054 295.5,66.5C 294.893,66.6236 294.56,66.9569 294.5,67.5C 215.883,55.739 154.716,82.739 111,148.5C 80.3916,205.146 79.7249,262.146 109,319.5C 113.595,327.033 118.429,334.367 123.5,341.5C 123.586,342.496 123.252,343.329 122.5,344C 125.993,345.088 126.159,346.255 123,347.5C 121.35,346.109 120.85,344.609 121.5,343C 120.207,342.51 118.873,342.343 117.5,342.5C 116.956,340.42 116.122,338.42 115,336.5C 113.989,335.663 112.822,335.33 111.5,335.5C 110.833,335.167 110.167,334.833 109.5,334.5C 96.5983,313.041 87.9316,290.041 83.5,265.5C 79.5603,246.17 79.5603,226.837 83.5,207.5C 89.5767,177.016 101.91,149.349 120.5,124.5C 120.833,123.5 121.5,122.833 122.5,122.5C 123.906,122.027 124.573,121.027 124.5,119.5C 131.965,112.536 139.298,105.369 146.5,98C 153.411,93.39 160.078,88.5567 166.5,83.5C 166.842,82.6618 167.508,82.3284 168.5,82.5C 171.578,82.413 173.911,81.0797 175.5,78.5C 178.545,77.7206 181.211,76.3873 183.5,74.5C 194.006,70.3683 204.672,66.535 215.5,63C 229.727,60.6912 244.061,59.1912 258.5,58.5C 270.871,59.1439 283.205,60.1439 295.5,61.5 Z"/></g>
<g><path style="opacity:0.421" fill="#e1ece7" d="M 435.5,263.5 C 435.5,267.5 435.5,271.5 435.5,275.5C 434.5,275.5 433.5,275.5 432.5,275.5C 433.262,271.329 434.262,267.329 435.5,263.5 Z"/></g>
<g><path style="opacity:0.07" fill="#ecefed" d="M 83.5,265.5 C 87.9316,290.041 96.5983,313.041 109.5,334.5C 107.45,332.763 105.617,330.763 104,328.5C 92.8407,308.856 86.0073,287.856 83.5,265.5 Z"/></g>
<g><path style="opacity:0.454" fill="#e4ece6" d="M 431.5,281.5 C 432.036,284.698 431.369,287.365 429.5,289.5C 429.565,286.572 430.232,283.905 431.5,281.5 Z"/></g>
<g><path style="opacity:0.871" fill="#e1ede6" d="M 427.5,294.5 C 427.5,296.833 427.5,299.167 427.5,301.5C 426.5,301.5 425.5,301.5 424.5,301.5C 425.659,299.145 426.659,296.812 427.5,294.5 Z"/></g>
<g><path style="opacity:0.737" fill="#ecf5ef" d="M 423.5,305.5 C 423.5,307.5 423.5,309.5 423.5,311.5C 422.5,311.5 421.5,311.5 420.5,311.5C 421.13,309.25 422.13,307.25 423.5,305.5 Z"/></g>
<g><path style="opacity:0.843" fill="#ecf6f1" d="M 419.5,314.5 C 419.5,316.167 419.5,317.833 419.5,319.5C 418.5,319.5 417.5,319.5 416.5,319.5C 417.263,317.632 418.263,315.965 419.5,314.5 Z"/></g>
<g><path style="opacity:0.264" fill="#e9f2ec" d="M 415.5,321.5 C 415.5,323.5 415.5,325.5 415.5,327.5C 414.5,327.5 413.5,327.5 412.5,327.5C 412.992,325.181 413.992,323.181 415.5,321.5 Z"/></g>
<g><path style="opacity:0.343" fill="#e4efe8" d="M 411.5,328.5 C 411.5,330.167 411.5,331.833 411.5,333.5C 410.5,333.5 409.5,333.5 408.5,333.5C 409.11,331.566 410.11,329.899 411.5,328.5 Z"/></g>
<g><path style="opacity:0.276" fill="#eff6f3" d="M 407.5,335.5 C 407.5,336.833 407.5,338.167 407.5,339.5C 406.5,339.5 405.5,339.5 404.5,339.5C 404.738,337.596 405.738,336.262 407.5,335.5 Z"/></g>
<g><path style="opacity:0.078" fill="#e3e8e5" d="M 109.5,334.5 C 110.167,334.833 110.833,335.167 111.5,335.5C 113.432,338.366 115.099,341.366 116.5,344.5C 113.395,341.725 111.062,338.392 109.5,334.5 Z"/></g>
<g><path style="opacity:0.495" fill="#e9f3ed" d="M 403.5,340.5 C 403.5,341.833 403.5,343.167 403.5,344.5C 402.5,344.5 401.5,344.5 400.5,344.5C 401.512,343.128 402.512,341.795 403.5,340.5 Z"/></g>
<g><path style="opacity:0.078" fill="#e6ebe8" d="M 116.5,344.5 C 118.587,345.585 119.92,347.251 120.5,349.5C 118.413,348.415 117.08,346.749 116.5,344.5 Z"/></g>
<g><path style="opacity:0.451" fill="#eef5f0" d="M 399.5,345.5 C 399.5,346.833 399.5,348.167 399.5,349.5C 398.5,349.5 397.5,349.5 396.5,349.5C 397.512,348.128 398.512,346.795 399.5,345.5 Z"/></g>
<g><path style="opacity:0.369" fill="#e3ece8" d="M 395.5,350.5 C 395.5,352.167 395.5,353.833 395.5,355.5C 394.167,355.5 392.833,355.5 391.5,355.5C 392.08,353.251 393.413,351.585 395.5,350.5 Z"/></g>
<g><path style="opacity:0.855" fill="#e8f2ec" d="M 391.5,355.5 C 391.5,356.833 391.5,358.167 391.5,359.5C 390.167,359.5 388.833,359.5 387.5,359.5C 388.5,357.833 389.833,356.5 391.5,355.5 Z"/></g>
<g><path style="opacity:0.996" fill="#274c35" d="M 305.5,64.5 C 307.5,64.8333 309.5,65.1667 311.5,65.5C 313.936,66.871 316.603,67.871 319.5,68.5C 320.167,68.5 320.833,68.5 321.5,68.5C 326.533,72.9521 332.533,75.6187 339.5,76.5C 341.896,78.0233 344.562,79.0233 347.5,79.5C 347.5,80.5 347.5,81.5 347.5,82.5C 350.167,82.8333 352.833,83.1667 355.5,83.5C 355.5,84.5 355.5,85.5 355.5,86.5C 356.833,86.5 358.167,86.5 359.5,86.5C 359.5,87.5 359.5,88.5 359.5,89.5C 361.554,89.3653 363.221,90.032 364.5,91.5C 365.167,92.8333 366.167,93.8333 367.5,94.5C 367.833,94.5 368.167,94.5 368.5,94.5C 369.167,95.8333 370.167,96.8333 371.5,97.5C 371.842,98.3382 372.508,98.6716 373.5,98.5C 373.833,99.5 374.5,100.167 375.5,100.5C 376.183,102.176 377.517,102.843 379.5,102.5C 379.5,103.5 379.5,104.5 379.5,105.5C 380.833,105.5 382.167,105.5 383.5,105.5C 383.5,106.833 383.5,108.167 383.5,109.5C 384.833,109.5 386.167,109.5 387.5,109.5C 387.5,110.833 387.5,112.167 387.5,113.5C 388.833,113.5 390.167,113.5 391.5,113.5C 391.5,115.167 391.5,116.833 391.5,118.5C 392.833,118.5 394.167,118.5 395.5,118.5C 395.157,120.483 395.824,121.817 397.5,122.5C 397.932,123.71 398.599,124.71 399.5,125.5C 399.5,126.833 400.167,127.5 401.5,127.5C 401.427,129.027 402.094,130.027 403.5,130.5C 403.328,131.492 403.662,132.158 404.5,132.5C 405.512,133.872 406.512,135.205 407.5,136.5C 407.328,137.492 407.662,138.158 408.5,138.5C 409.512,139.872 410.512,141.205 411.5,142.5C 411.285,144.179 411.952,145.179 413.5,145.5C 413.66,147.153 414.326,148.486 415.5,149.5C 415.5,151.167 415.5,152.833 415.5,154.5C 416.833,154.5 418.167,154.5 419.5,154.5C 418.964,157.698 419.631,160.365 421.5,162.5C 421.932,163.71 422.599,164.71 423.5,165.5C 423.077,167.781 423.744,169.448 425.5,170.5C 425.402,172.553 426.069,174.22 427.5,175.5C 426.964,178.698 427.631,181.365 429.5,183.5C 429.796,185.403 430.463,187.07 431.5,188.5C 430.931,192.329 431.598,195.663 433.5,198.5C 433.99,201.655 434.656,204.655 435.5,207.5C 434.872,214.913 435.539,221.913 437.5,228.5C 437.5,234.167 437.5,239.833 437.5,245.5C 435.547,251.074 434.88,257.074 435.5,263.5C 434.262,267.329 433.262,271.329 432.5,275.5C 431.539,277.265 431.205,279.265 431.5,281.5C 430.232,283.905 429.565,286.572 429.5,289.5C 427.744,290.552 427.077,292.219 427.5,294.5C 426.659,296.812 425.659,299.145 424.5,301.5C 423.566,302.568 423.232,303.901 423.5,305.5C 422.13,307.25 421.13,309.25 420.5,311.5C 419.596,312.209 419.263,313.209 419.5,314.5C 418.263,315.965 417.263,317.632 416.5,319.5C 415.662,319.842 415.328,320.508 415.5,321.5C 413.992,323.181 412.992,325.181 412.5,327.5C 411.833,327.5 411.5,327.833 411.5,328.5C 410.11,329.899 409.11,331.566 408.5,333.5C 407.662,333.842 407.328,334.508 407.5,335.5C 405.738,336.262 404.738,337.596 404.5,339.5C 403.833,339.5 403.5,339.833 403.5,340.5C 402.512,341.795 401.512,343.128 400.5,344.5C 399.833,344.5 399.5,344.833 399.5,345.5C 398.512,346.795 397.512,348.128 396.5,349.5C 395.833,349.5 395.5,349.833 395.5,350.5C 393.413,351.585 392.08,353.251 391.5,355.5C 389.833,356.5 388.5,357.833 387.5,359.5C 385.833,360.5 384.5,361.833 383.5,363.5C 381.833,364.5 380.5,365.833 379.5,367.5C 377.833,368.5 376.5,369.833 375.5,371.5C 373.77,372.026 372.436,373.026 371.5,374.5C 369.77,375.026 368.436,376.026 367.5,377.5C 366.128,378.512 364.795,379.512 363.5,380.5C 361.77,381.026 360.436,382.026 359.5,383.5C 357.77,384.026 356.436,385.026 355.5,386.5C 351.164,388.332 347.164,390.665 343.5,393.5C 341.847,393.66 340.514,394.326 339.5,395.5C 337.847,395.66 336.514,396.326 335.5,397.5C 276.312,423.051 218.979,419.551 163.5,387C 147.173,376.843 132.84,364.343 120.5,349.5C 119.92,347.251 118.587,345.585 116.5,344.5C 115.099,341.366 113.432,338.366 111.5,335.5C 112.822,335.33 113.989,335.663 115,336.5C 116.122,338.42 116.956,340.42 117.5,342.5C 118.873,342.343 120.207,342.51 121.5,343C 120.85,344.609 121.35,346.109 123,347.5C 126.159,346.255 125.993,345.088 122.5,344C 123.252,343.329 123.586,342.496 123.5,341.5C 171.961,398.818 232.961,418.652 306.5,401C 370.496,380.004 410.663,336.837 427,271.5C 438.553,203.481 418.386,146.981 366.5,102C 345.002,85.4189 321.002,73.9189 294.5,67.5C 294.56,66.9569 294.893,66.6236 295.5,66.5C 300.692,68.8054 306.025,69.4721 311.5,68.5C 309.289,67.3405 307.289,66.0072 305.5,64.5 Z"/></g>
<g><path style="opacity:1" fill="#d4eedc" d="M 294.5,67.5 C 321.002,73.9189 345.002,85.4189 366.5,102C 418.386,146.981 438.553,203.481 427,271.5C 410.663,336.837 370.496,380.004 306.5,401C 232.961,418.652 171.961,398.818 123.5,341.5C 118.429,334.367 113.595,327.033 109,319.5C 79.7249,262.146 80.3916,205.146 111,148.5C 154.716,82.739 215.883,55.739 294.5,67.5 Z"/></g>
<g><path style="opacity:0.484" fill="#ddebe4" d="M 387.5,359.5 C 387.5,360.833 387.5,362.167 387.5,363.5C 386.167,363.5 384.833,363.5 383.5,363.5C 384.5,361.833 385.833,360.5 387.5,359.5 Z"/></g>
<g><path style="opacity:0.937" fill="#e2efe5" d="M 383.5,363.5 C 383.5,364.833 383.5,366.167 383.5,367.5C 382.167,367.5 380.833,367.5 379.5,367.5C 380.5,365.833 381.833,364.5 383.5,363.5 Z"/></g>
<g><path style="opacity:0.957" fill="#eaf7ef" d="M 379.5,367.5 C 379.5,368.833 379.5,370.167 379.5,371.5C 378.167,371.5 376.833,371.5 375.5,371.5C 376.5,369.833 377.833,368.5 379.5,367.5 Z"/></g>
<g><path style="opacity:0.788" fill="#e5f1ea" d="M 375.5,371.5 C 375.5,372.5 375.5,373.5 375.5,374.5C 374.167,374.5 372.833,374.5 371.5,374.5C 372.436,373.026 373.77,372.026 375.5,371.5 Z"/></g>
<g><path style="opacity:0.361" fill="#e6efe9" d="M 371.5,374.5 C 371.5,375.5 371.5,376.5 371.5,377.5C 370.167,377.5 368.833,377.5 367.5,377.5C 368.436,376.026 369.77,375.026 371.5,374.5 Z"/></g>
<g><path style="opacity:0.502" fill="#e7f0ea" d="M 367.5,377.5 C 367.5,378.5 367.5,379.5 367.5,380.5C 366.167,380.5 364.833,380.5 363.5,380.5C 364.795,379.512 366.128,378.512 367.5,377.5 Z"/></g>
<g><path style="opacity:0.918" fill="#dceee4" d="M 363.5,380.5 C 363.5,381.5 363.5,382.5 363.5,383.5C 362.167,383.5 360.833,383.5 359.5,383.5C 360.436,382.026 361.77,381.026 363.5,380.5 Z"/></g>
<g><path style="opacity:0.784" fill="#eff8f2" d="M 359.5,383.5 C 359.5,384.5 359.5,385.5 359.5,386.5C 358.167,386.5 356.833,386.5 355.5,386.5C 356.436,385.026 357.77,384.026 359.5,383.5 Z"/></g>
<g><path style="opacity:0.194" fill="#f1f6f3" d="M 120.5,349.5 C 132.84,364.343 147.173,376.843 163.5,387C 218.979,419.551 276.312,423.051 335.5,397.5C 331.285,400.618 326.618,403.285 321.5,405.5C 246.635,429.157 181.468,413.49 126,358.5C 124.144,355.444 122.311,352.444 120.5,349.5 Z"/></g>
<g><path style="opacity:1" fill="#214c31" d="M 237.5,67.5 C 310.797,62.564 366.964,90.8973 406,152.5C 426.965,190.542 432.965,230.875 424,273.5C 407.676,334.488 369.843,375.655 310.5,397C 239.602,416.409 179.435,399.242 130,345.5C 92.4952,298.175 81.4952,245.175 97,186.5C 114.616,135.216 148.449,99.0493 198.5,78C 211.336,73.3767 224.336,69.8767 237.5,67.5 Z"/></g>
<g><path style="opacity:1" fill="#d2dfd6" d="M 151.5,353.5 C 155.712,355.478 160.046,357.312 164.5,359C 167.068,361.539 168.735,364.206 169.5,367C 175.628,368.538 180.962,371.538 185.5,376C 189.114,377.047 192.78,377.88 196.5,378.5C 199.121,380.813 202.121,382.147 205.5,382.5C 205.215,380.712 205.548,379.045 206.5,377.5C 207.48,380.086 207.813,382.753 207.5,385.5C 210.551,385.636 213.551,385.302 216.5,384.5C 219.063,384.737 219.063,385.237 216.5,386C 217.167,387.333 218.167,388.333 219.5,389C 225.104,389.236 230.437,390.403 235.5,392.5C 239.441,391.524 243.275,391.191 247,391.5C 249.461,392.218 251.961,392.885 254.5,393.5C 262.632,393.463 270.799,392.463 279,390.5C 280.707,391.459 282.541,392.125 284.5,392.5C 291.026,390.91 297.526,389.243 304,387.5C 306.321,386.178 308.488,384.678 310.5,383C 313.482,382.502 316.482,382.335 319.5,382.5C 319.5,381.5 319.5,380.5 319.5,379.5C 322.187,379.664 324.854,379.497 327.5,379C 328.842,376.108 331.175,374.775 334.5,375C 335.833,373.667 337.167,372.333 338.5,371C 342.434,369.21 346.434,367.71 350.5,366.5C 328.39,382.156 303.723,391.656 276.5,395C 237.205,398.843 201.205,389.843 168.5,368C 162.348,363.677 156.681,358.843 151.5,353.5 Z"/></g>
<g><path style="opacity:1" fill="#d0dfd5" d="M 125.5,149.5 C 119.493,163.16 113.827,176.827 108.5,190.5C 108.924,192.87 109.091,195.204 109,197.5C 108.333,196.167 107.667,196.167 107,197.5C 105.708,201.084 104.708,204.751 104,208.5C 103.541,218.23 102.707,227.897 101.5,237.5C 101.438,248.121 102.104,258.788 103.5,269.5C 94.9597,231.495 99.7931,195.161 118,160.5C 120.363,156.655 122.863,152.989 125.5,149.5 Z"/></g>
<g><path style="opacity:1" fill="#d8e1d9" d="M 408.5,181.5 C 410.745,184.754 412.245,188.42 413,192.5C 423.851,233.255 419.685,272.255 400.5,309.5C 404.501,295.45 409.001,281.45 414,267.5C 414.19,252.301 414.69,237.135 415.5,222C 414.916,217.499 414.249,212.999 413.5,208.5C 412.522,208.023 411.689,207.357 411,206.5C 410.823,198.066 409.99,189.732 408.5,181.5 Z"/></g>
<g><path style="opacity:1" fill="#dce0dd" d="M 402.5,166.5 C 399.303,165.888 397.969,163.888 398.5,160.5C 393.047,160.76 388.047,159.427 383.5,156.5C 383.167,155.833 382.833,155.167 382.5,154.5C 385.627,150.417 386.127,146.083 384,141.5C 383.333,142.833 382.333,143.833 381,144.5C 379,143.167 377,143.167 375,144.5C 371.333,143.74 370.833,142.24 373.5,140C 374.793,139.51 376.127,139.343 377.5,139.5C 377.313,137.436 376.813,135.436 376,133.5C 372.125,129.02 368.958,124.52 366.5,120C 364.833,119.667 363.167,119.333 361.5,119C 359.983,117.315 358.316,115.815 356.5,114.5C 356.003,117.932 354.67,120.932 352.5,123.5C 350.088,119.177 350.088,115.01 352.5,111C 349.056,108.848 345.723,106.515 342.5,104C 339.595,104.521 337.095,106.021 335,108.5C 334.506,110.134 334.34,111.801 334.5,113.5C 330.253,114.778 327.586,117.112 326.5,120.5C 326.082,121.222 325.416,121.722 324.5,122C 328.226,123.043 327.893,123.543 323.5,123.5C 324.014,121.488 324.18,119.488 324,117.5C 323.667,117.833 323.333,118.167 323,118.5C 322.508,117.451 322.674,116.451 323.5,115.5C 323,115.167 322.5,114.833 322,114.5C 319.851,116.458 317.518,116.791 315,115.5C 314.692,116.308 314.192,116.975 313.5,117.5C 312.476,116.147 311.143,115.48 309.5,115.5C 309.5,114.5 309.5,113.5 309.5,112.5C 311.716,111.797 313.549,110.464 315,108.5C 315.14,110.256 314.64,111.922 313.5,113.5C 313.833,113.833 314.167,114.167 314.5,114.5C 315.973,111.72 317.307,108.887 318.5,106C 315.358,106.088 312.858,107.588 311,110.5C 310.818,107.774 310.318,105.107 309.5,102.5C 308.817,102.863 308.15,103.196 307.5,103.5C 307.196,102.85 306.863,102.183 306.5,101.5C 307.484,99.5201 308.817,97.8534 310.5,96.5C 310.167,95.8333 309.833,95.1667 309.5,94.5C 311.04,93.4679 311.54,92.1346 311,90.5C 308.205,89.1922 305.705,87.5255 303.5,85.5C 297.458,85.2749 291.792,83.7749 286.5,81C 270.451,79.732 255.117,79.5653 240.5,80.5C 239.679,83.4465 239.179,86.4465 239,89.5C 236.985,88.1577 234.818,87.6577 232.5,88C 234.459,88.9309 236.459,89.7643 238.5,90.5C 239.429,91.6888 239.762,93.0222 239.5,94.5C 239.167,94.5 238.833,94.5 238.5,94.5C 237.737,93.7321 236.737,93.2321 235.5,93C 236.5,92.6667 237.5,92.3333 238.5,92C 236.246,90.8495 233.913,90.5162 231.5,91C 232.5,91.3333 233.5,91.6667 234.5,92C 233.128,92.4017 231.795,92.9017 230.5,93.5C 227.828,91.3274 225.494,88.8274 223.5,86C 218.921,84.8877 214.921,85.8877 211.5,89C 214.926,89.0041 218.093,88.8375 221,88.5C 223.127,89.3972 223.627,90.7305 222.5,92.5C 217.999,93.4165 213.499,94.4165 209,95.5C 206.949,95.5771 205.116,95.0771 203.5,94C 206.156,92.9971 207.156,91.3304 206.5,89C 203.918,89.2554 201.252,89.422 198.5,89.5C 198.719,90.675 198.386,91.675 197.5,92.5C 193.038,92.8494 189.038,94.3494 185.5,97C 183.475,100.903 180.475,103.736 176.5,105.5C 175.035,104.391 174.035,104.891 173.5,107C 170.201,107.754 167.534,109.421 165.5,112C 163.866,112.494 162.199,112.66 160.5,112.5C 160.762,113.978 160.429,115.311 159.5,116.5C 154.716,119.127 150.383,122.294 146.5,126C 140.204,131.965 135.037,138.798 131,146.5C 129.134,147.527 127.3,148.527 125.5,149.5C 152.492,108.479 190.492,84.3119 239.5,77C 306.998,72.0022 359.165,97.5022 396,153.5C 398.705,157.577 400.872,161.91 402.5,166.5 Z"/></g>
<g><path style="opacity:1" fill="#151515" d="M 309.5,112.5 C 310.209,105.855 309.042,105.188 306,110.5C 305.833,110.167 305.667,109.833 305.5,109.5C 306.747,107.677 307.414,105.677 307.5,103.5C 308.15,103.196 308.817,102.863 309.5,102.5C 310.318,105.107 310.818,107.774 311,110.5C 312.858,107.588 315.358,106.088 318.5,106C 317.307,108.887 315.973,111.72 314.5,114.5C 314.167,114.167 313.833,113.833 313.5,113.5C 314.64,111.922 315.14,110.256 315,108.5C 313.549,110.464 311.716,111.797 309.5,112.5 Z"/></g>
<g><path style="opacity:1" fill="#e0e0e0" d="M 307.5,103.5 C 307.414,105.677 306.747,107.677 305.5,109.5C 305.667,109.833 305.833,110.167 306,110.5C 309.042,105.188 310.209,105.855 309.5,112.5C 309.5,113.5 309.5,114.5 309.5,115.5C 311.143,115.48 312.476,116.147 313.5,117.5C 314.192,116.975 314.692,116.308 315,115.5C 317.518,116.791 319.851,116.458 322,114.5C 322.5,114.833 323,115.167 323.5,115.5C 322.674,116.451 322.508,117.451 323,118.5C 323.333,118.167 323.667,117.833 324,117.5C 324.18,119.488 324.014,121.488 323.5,123.5C 327.893,123.543 328.226,123.043 324.5,122C 325.416,121.722 326.082,121.222 326.5,120.5C 329.911,119.224 331.911,120.557 332.5,124.5C 333.539,120.895 334.205,117.228 334.5,113.5C 334.34,111.801 334.506,110.134 335,108.5C 337.095,106.021 339.595,104.521 342.5,104C 345.723,106.515 349.056,108.848 352.5,111C 350.088,115.01 350.088,119.177 352.5,123.5C 354.67,120.932 356.003,117.932 356.5,114.5C 358.316,115.815 359.983,117.315 361.5,119C 363.167,119.333 364.833,119.667 366.5,120C 368.958,124.52 372.125,129.02 376,133.5C 376.813,135.436 377.313,137.436 377.5,139.5C 376.127,139.343 374.793,139.51 373.5,140C 370.833,142.24 371.333,143.74 375,144.5C 377,143.167 379,143.167 381,144.5C 382.333,143.833 383.333,142.833 384,141.5C 386.127,146.083 385.627,150.417 382.5,154.5C 382.833,155.167 383.167,155.833 383.5,156.5C 388.047,159.427 393.047,160.76 398.5,160.5C 397.969,163.888 399.303,165.888 402.5,166.5C 405.662,170.975 407.662,175.975 408.5,181.5C 409.99,189.732 410.823,198.066 411,206.5C 411.689,207.357 412.522,208.023 413.5,208.5C 414.249,212.999 414.916,217.499 415.5,222C 414.69,237.135 414.19,252.301 414,267.5C 409.001,281.45 404.501,295.45 400.5,309.5C 388.809,332.858 372.143,351.858 350.5,366.5C 346.434,367.71 342.434,369.21 338.5,371C 337.167,372.333 335.833,373.667 334.5,375C 331.175,374.775 328.842,376.108 327.5,379C 324.854,379.497 322.187,379.664 319.5,379.5C 319.5,380.5 319.5,381.5 319.5,382.5C 316.482,382.335 313.482,382.502 310.5,383C 308.488,384.678 306.321,386.178 304,387.5C 297.526,389.243 291.026,390.91 284.5,392.5C 282.541,392.125 280.707,391.459 279,390.5C 270.799,392.463 262.632,393.463 254.5,393.5C 251.961,392.885 249.461,392.218 247,391.5C 243.275,391.191 239.441,391.524 235.5,392.5C 230.437,390.403 225.104,389.236 219.5,389C 218.167,388.333 217.167,387.333 216.5,386C 219.063,385.237 219.063,384.737 216.5,384.5C 213.551,385.302 210.551,385.636 207.5,385.5C 207.813,382.753 207.48,380.086 206.5,377.5C 205.548,379.045 205.215,380.712 205.5,382.5C 202.121,382.147 199.121,380.813 196.5,378.5C 192.78,377.88 189.114,377.047 185.5,376C 180.962,371.538 175.628,368.538 169.5,367C 168.735,364.206 167.068,361.539 164.5,359C 160.046,357.312 155.712,355.478 151.5,353.5C 126.198,330.905 110.198,302.905 103.5,269.5C 102.104,258.788 101.438,248.121 101.5,237.5C 102.707,227.897 103.541,218.23 104,208.5C 104.708,204.751 105.708,201.084 107,197.5C 107.667,196.167 108.333,196.167 109,197.5C 109.091,195.204 108.924,192.87 108.5,190.5C 113.827,176.827 119.493,163.16 125.5,149.5C 127.3,148.527 129.134,147.527 131,146.5C 135.037,138.798 140.204,131.965 146.5,126C 150.383,122.294 154.716,119.127 159.5,116.5C 160.429,115.311 160.762,113.978 160.5,112.5C 162.199,112.66 163.866,112.494 165.5,112C 167.534,109.421 170.201,107.754 173.5,107C 174.035,104.891 175.035,104.391 176.5,105.5C 180.475,103.736 183.475,100.903 185.5,97C 189.038,94.3494 193.038,92.8494 197.5,92.5C 198.386,91.675 198.719,90.675 198.5,89.5C 201.252,89.422 203.918,89.2554 206.5,89C 207.156,91.3304 206.156,92.9971 203.5,94C 205.116,95.0771 206.949,95.5771 209,95.5C 213.499,94.4165 217.999,93.4165 222.5,92.5C 223.627,90.7305 223.127,89.3972 221,88.5C 218.093,88.8375 214.926,89.0041 211.5,89C 214.921,85.8877 218.921,84.8877 223.5,86C 225.494,88.8274 227.828,91.3274 230.5,93.5C 231.795,92.9017 233.128,92.4017 234.5,92C 233.5,91.6667 232.5,91.3333 231.5,91C 233.913,90.5162 236.246,90.8495 238.5,92C 237.5,92.3333 236.5,92.6667 235.5,93C 236.737,93.2321 237.737,93.7321 238.5,94.5C 232.977,94.5619 231.144,97.2286 233,102.5C 239.521,105.995 242.187,103.995 241,96.5C 240.283,95.9558 239.783,95.2891 239.5,94.5C 239.762,93.0222 239.429,91.6888 238.5,90.5C 236.459,89.7643 234.459,88.9309 232.5,88C 234.818,87.6577 236.985,88.1577 239,89.5C 239.179,86.4465 239.679,83.4465 240.5,80.5C 255.117,79.5653 270.451,79.732 286.5,81C 291.792,83.7749 297.458,85.2749 303.5,85.5C 305.705,87.5255 308.205,89.1922 311,90.5C 311.54,92.1346 311.04,93.4679 309.5,94.5C 309.833,95.1667 310.167,95.8333 310.5,96.5C 308.817,97.8534 307.484,99.5201 306.5,101.5C 306.863,102.183 307.196,102.85 307.5,103.5 Z"/></g>
<g><path style="opacity:1" fill="#1e1e1e" d="M 318.5,350.5 C 320.286,352.633 321.619,355.133 322.5,358C 322.167,358.5 321.833,359 321.5,359.5C 319.807,357.973 317.973,356.64 316,355.5C 315.818,358.226 315.318,360.893 314.5,363.5C 312.833,360.833 311.167,358.167 309.5,355.5C 309.833,355.167 310.167,354.833 310.5,354.5C 311.584,355.665 312.417,356.998 313,358.5C 313.192,356.423 313.692,354.423 314.5,352.5C 315.914,353.624 317.414,354.624 319,355.5C 318.981,353.893 318.815,352.226 318.5,350.5 Z"/></g>
<g><path style="opacity:1" fill="#1a1a1a" d="M 333.5,341.5 C 335.719,343.575 337.719,345.909 339.5,348.5C 338.472,350.361 336.972,351.695 335,352.5C 334.911,350.887 335.745,349.72 337.5,349C 336.975,348.308 336.308,347.808 335.5,347.5C 334.232,348.428 332.899,348.595 331.5,348C 334.234,347.282 334.9,345.782 333.5,343.5C 332.5,344.167 331.5,344.833 330.5,345.5C 330.167,345.167 329.833,344.833 329.5,344.5C 330.901,343.479 332.235,342.479 333.5,341.5 Z"/></g>
<g><path style="opacity:1" fill="#202020" d="M 346.5,331.5 C 348.296,332.793 349.963,334.293 351.5,336C 352.951,335.737 354.284,335.904 355.5,336.5C 353.613,338.04 351.78,339.707 350,341.5C 349.508,340.451 349.674,339.451 350.5,338.5C 348.89,336.275 347.557,333.941 346.5,331.5 Z"/></g>
<g><path style="opacity:1" fill="#1e1e1e" d="M 359.5,317.5 C 364.539,317.451 364.705,318.118 360,319.5C 359.251,320.635 359.417,321.635 360.5,322.5C 362.452,320.467 364.618,320.134 367,321.5C 367.5,325 366,326.5 362.5,326C 365.267,325.331 365.767,324.164 364,322.5C 357.849,324.525 356.349,322.858 359.5,317.5 Z"/></g>
<g><path style="opacity:1" fill="#1f1f1f" d="M 369.5,303.5 C 372.913,305.06 376.579,305.893 380.5,306C 378.715,307.163 376.715,307.83 374.5,308C 375.765,309.337 376.265,310.837 376,312.5C 374.28,309.011 372.113,306.011 369.5,303.5 Z"/></g>
<g><path style="opacity:1" fill="#111111" d="M 379.5,286.5 C 383.243,286.459 383.41,287.126 380,288.5C 379.251,289.635 379.417,290.635 380.5,291.5C 381.874,290.289 383.374,289.289 385,288.5C 387.319,289.409 387.986,291.075 387,293.5C 386.282,294.451 385.449,294.617 384.5,294C 386.559,292.815 386.726,291.648 385,290.5C 379.288,294.966 377.454,293.633 379.5,286.5 Z"/></g>
<g><path style="opacity:1" fill="#2b2b2b" d="M 397.5,256.5 C 398.773,259.196 398.439,261.862 396.5,264.5C 395.571,263.311 395.238,261.978 395.5,260.5C 392.843,260.838 390.51,260.171 388.5,258.5C 390.902,258.478 393.568,258.311 396.5,258C 397.056,257.617 397.389,257.117 397.5,256.5 Z"/></g>
<g><path style="opacity:1" fill="#1c1c1c" d="M 314.5,205.5 C 326.127,204.321 336.461,207.321 345.5,214.5C 342.863,218.968 340.03,223.302 337,227.5C 335.53,212.047 327.03,205.547 311.5,208C 305.823,211.636 303.99,216.803 306,223.5C 307.458,225.96 309.291,228.127 311.5,230C 319.404,232.975 327.404,235.642 335.5,238C 347.107,245.057 349.607,254.557 343,266.5C 339.16,271.004 334.327,273.838 328.5,275C 320.006,276.066 311.672,275.399 303.5,273C 300.109,271.311 297.109,269.144 294.5,266.5C 296.802,262.367 299.302,258.367 302,254.5C 306.165,271.026 316.332,276.86 332.5,272C 338.568,265.507 338.901,258.841 333.5,252C 326.368,249.067 319.035,246.734 311.5,245C 302.2,241.207 296.867,234.373 295.5,224.5C 296.119,219.094 298.453,214.594 302.5,211C 306.481,208.838 310.481,207.005 314.5,205.5 Z"/></g>
<g><path style="opacity:1" fill="#1b1b1b" d="M 390.5,235.5 C 393.898,235.18 397.232,235.513 400.5,236.5C 398.54,238.156 396.54,239.823 394.5,241.5C 396.078,242.298 397.744,242.798 399.5,243C 389.495,244.348 388.495,242.681 396.5,238C 393.949,237.998 391.949,237.164 390.5,235.5 Z"/></g>
<g><path style="opacity:1" fill="#101010" d="M 395.5,216.5 C 396.833,216.5 398.167,216.5 399.5,216.5C 399.662,218.527 399.495,220.527 399,222.5C 398.51,221.207 398.343,219.873 398.5,218.5C 397.5,218.5 396.5,218.5 395.5,218.5C 395.167,225.167 394.833,225.167 394.5,218.5C 393.5,218.5 392.5,218.5 391.5,218.5C 391.66,220.199 391.494,221.866 391,223.5C 390.505,221.527 390.338,219.527 390.5,217.5C 392.415,217.784 394.081,217.451 395.5,216.5 Z"/></g>
<g><path style="opacity:1" fill="#1d1d1d" d="M 263.5,207.5 C 269.026,207.179 274.36,207.512 279.5,208.5C 278.542,208.953 277.708,209.619 277,210.5C 276.333,230.833 276.333,251.167 277,271.5C 278.648,272.717 280.481,273.55 282.5,274C 273.833,274.667 265.167,274.667 256.5,274C 259.025,273.576 261.025,272.41 262.5,270.5C 263.662,251.338 263.829,232.004 263,212.5C 262.487,213.527 261.987,214.527 261.5,215.5C 253.484,235.383 244.984,255.049 236,274.5C 226.492,256.686 217.492,238.686 209,220.5C 208.333,235.167 208.333,249.833 209,264.5C 209.331,269.015 211.498,272.182 215.5,274C 210.167,274.667 204.833,274.667 199.5,274C 202.893,273.606 205.06,271.773 206,268.5C 206.667,250.5 206.667,232.5 206,214.5C 204.207,211.705 202.04,209.205 199.5,207C 205.084,206.194 210.584,206.361 216,207.5C 224.736,224.063 233.236,240.73 241.5,257.5C 248.879,240.752 256.212,224.086 263.5,207.5 Z"/></g>
<g><path style="opacity:1" fill="#a7a7a7" d="M 262.5,270.5 C 262.83,251.992 262.497,233.659 261.5,215.5C 261.987,214.527 262.487,213.527 263,212.5C 263.829,232.004 263.662,251.338 262.5,270.5 Z"/></g>
<g><path style="opacity:1" fill="#1a1a1a" d="M 137.5,208.5 C 144.5,207.167 151.5,207.167 158.5,208.5C 156.983,208.511 155.816,209.177 155,210.5C 154.5,231.164 154.333,251.831 154.5,272.5C 170.712,275.166 182.879,269.5 191,255.5C 189.826,262.534 188.159,269.534 186,276.5C 185.25,275.874 184.416,275.374 183.5,275C 167.167,274.667 150.833,274.333 134.5,274C 138.165,272.332 140.332,269.499 141,265.5C 141.667,247.167 141.667,228.833 141,210.5C 140.184,209.177 139.017,208.511 137.5,208.5 Z"/></g>
<g><path style="opacity:1" fill="#707070" d="M 263.5,207.5 C 269.987,206.346 276.654,206.179 283.5,207C 282.255,207.791 280.922,208.291 279.5,208.5C 274.36,207.512 269.026,207.179 263.5,207.5 Z"/></g>
<g><path style="opacity:1" fill="#727272" d="M 158.5,208.5 C 151.5,207.167 144.5,207.167 137.5,208.5C 136.527,208.013 135.527,207.513 134.5,207C 143.833,206.333 153.167,206.333 162.5,207C 161.099,207.41 159.766,207.91 158.5,208.5 Z"/></g>
<g><path style="opacity:1" fill="#212121" d="M 392.5,192.5 C 393.376,192.369 394.043,192.702 394.5,193.5C 392.833,195.5 391.167,197.5 389.5,199.5C 391.743,200.474 394.076,200.808 396.5,200.5C 396.5,201.5 396.5,202.5 396.5,203.5C 393.687,203.548 391.021,204.215 388.5,205.5C 388.167,205.167 387.833,204.833 387.5,204.5C 392.994,202.105 392.661,201.105 386.5,201.5C 386.452,198.708 387.785,196.875 390.5,196C 388.343,195.922 386.343,195.755 384.5,195.5C 387.184,194.247 389.85,193.247 392.5,192.5 Z"/></g>
<g><path style="opacity:1" fill="#1e1e1e" d="M 386.5,174.5 C 388.708,175.918 389.542,177.918 389,180.5C 388.221,179.272 387.221,178.272 386,177.5C 385.5,177.833 385,178.167 384.5,178.5C 385.428,179.768 385.595,181.101 385,182.5C 382.049,177.314 380.716,177.647 381,183.5C 379.98,182.109 379.147,180.609 378.5,179C 381.099,177.205 383.766,175.705 386.5,174.5 Z"/></g>
<g><path style="opacity:1" fill="#191919" d="M 372.5,157.5 C 378.172,156.185 380.505,158.185 379.5,163.5C 378.69,160.168 376.69,158.668 373.5,159C 370.895,160.931 370.895,162.764 373.5,164.5C 375.064,161.864 376.397,162.031 377.5,165C 373.582,168.477 371.249,167.477 370.5,162C 370.519,160.167 371.185,158.667 372.5,157.5 Z"/></g>
<g><path style="opacity:1" fill="#202020" d="M 142.5,155.5 C 144.816,156.806 147.15,158.139 149.5,159.5C 150.719,158.737 151.719,157.737 152.5,156.5C 152.833,156.833 153.167,157.167 153.5,157.5C 152.139,159.028 150.972,160.695 150,162.5C 146.928,160.589 144.428,158.255 142.5,155.5 Z"/></g>
<g><path style="opacity:1" fill="#1d1d1d" d="M 362.5,141.5 C 363.833,141.5 365.167,141.5 366.5,141.5C 365.684,145.147 364.184,148.48 362,151.5C 362.073,147.639 360.24,145.306 356.5,144.5C 358.594,143.482 360.594,142.482 362.5,141.5 Z"/></g>
<g><path style="opacity:1" fill="#b7b7b7" d="M 361.5,143.5 C 365.099,143.262 365.433,144.262 362.5,146.5C 361.614,145.675 361.281,144.675 361.5,143.5 Z"/></g>
<g><path style="opacity:1" fill="#1b1b1b" d="M 153.5,142.5 C 153.897,141.475 154.563,141.308 155.5,142C 157.208,144.043 159.208,145.71 161.5,147C 161,147.5 160.5,148 160,148.5C 157.963,146.294 155.797,144.294 153.5,142.5 Z"/></g>
<g><path style="opacity:1" fill="#1e1e1e" d="M 168.5,126.5 C 170.897,129.309 172.23,132.642 172.5,136.5C 168.737,135.748 165.404,134.081 162.5,131.5C 162.833,131.167 163.167,130.833 163.5,130.5C 165.799,131.635 167.966,132.968 170,134.5C 169.641,131.888 169.141,129.221 168.5,126.5 Z"/></g>
<g><path style="opacity:1" fill="#1d1d1d" d="M 347.5,124.5 C 348.317,126.969 348.817,129.635 349,132.5C 350.333,131.167 351.667,129.833 353,128.5C 353.167,128.833 353.333,129.167 353.5,129.5C 351.727,132.06 349.727,134.393 347.5,136.5C 346.686,134.234 346.186,131.9 346,129.5C 345,130.5 344,131.5 343,132.5C 342.833,132 342.667,131.5 342.5,131C 343.985,128.683 345.652,126.516 347.5,124.5 Z"/></g>
<g><path style="opacity:1" fill="#1b1b1b" d="M 182.5,115.5 C 183.239,115.369 183.906,115.536 184.5,116C 183.5,117 182.5,118 181.5,119C 183.137,120.951 184.637,120.784 186,118.5C 186.167,118.833 186.333,119.167 186.5,119.5C 184.985,120.591 184.152,121.924 184,123.5C 184.333,123.833 184.667,124.167 185,124.5C 186.337,123.235 187.837,122.735 189.5,123C 187.833,124.167 186.167,125.333 184.5,126.5C 182.455,124.241 180.789,121.741 179.5,119C 180.544,117.826 181.544,116.659 182.5,115.5 Z"/></g>
<g><path style="opacity:1" fill="#1e1e1e" d="M 334.5,113.5 C 334.205,117.228 333.539,120.895 332.5,124.5C 331.911,120.557 329.911,119.224 326.5,120.5C 327.586,117.112 330.253,114.778 334.5,113.5 Z"/></g>
<g><path style="opacity:1" fill="#bfbfbf" d="M 331.5,116.5 C 332.776,117.386 332.776,118.386 331.5,119.5C 330.438,118.575 330.438,117.575 331.5,116.5 Z"/></g>
<g><path style="opacity:1" fill="#212121" d="M 198.5,106.5 C 203.74,107.413 203.74,108.413 198.5,109.5C 200.341,110.23 202.175,110.897 204,111.5C 204.289,115.709 202.456,117.042 198.5,115.5C 199.833,114.833 201.167,114.167 202.5,113.5C 200.659,112.77 198.825,112.103 197,111.5C 196.36,109.457 196.86,107.79 198.5,106.5 Z"/></g>
<g><path style="opacity:1" fill="#1c1c1c" d="M 215.5,99.5 C 216.873,99.3433 218.207,99.51 219.5,100C 218.572,100.388 217.905,101.055 217.5,102C 218.863,104.508 219.196,107.008 218.5,109.5C 217.515,107.228 216.681,104.895 216,102.5C 214.865,102.273 213.698,101.94 212.5,101.5C 213.602,100.824 214.602,100.158 215.5,99.5 Z"/></g>
<g><path style="opacity:1" fill="#1a1a1a" d="M 238.5,94.5 C 238.833,94.5 239.167,94.5 239.5,94.5C 239.783,95.2891 240.283,95.9558 241,96.5C 242.187,103.995 239.521,105.995 233,102.5C 231.144,97.2286 232.977,94.5619 238.5,94.5 Z"/></g>
<g><path style="opacity:1" fill="#191919" d="M 274.5,93.5 C 276.045,94.2297 276.878,95.563 277,97.5C 278.263,95.2031 280.097,94.3698 282.5,95C 280.651,96.093 278.984,97.4263 277.5,99C 278.305,100.972 279.639,102.472 281.5,103.5C 281.167,103.833 280.833,104.167 280.5,104.5C 278.38,103.405 276.88,101.739 276,99.5C 275.781,100.938 275.281,102.271 274.5,103.5C 274.024,100.26 274.024,96.9271 274.5,93.5 Z"/></g>
<g><path style="opacity:1" fill="#d7d7d7" d="M 235.5,96.5 C 239.473,97.0755 240.473,99.2421 238.5,103C 237.216,103.684 236.049,103.517 235,102.5C 234.322,100.402 234.489,98.4024 235.5,96.5 Z"/></g>
<g><path style="opacity:1" fill="#282828" d="M 256.5,92.5 C 258.827,92.2471 260.827,92.9137 262.5,94.5C 261.319,95.3089 259.986,95.3089 258.5,94.5C 255.736,95.6282 255.069,97.4615 256.5,100C 258.5,100.333 260.5,100.667 262.5,101C 257.854,103.792 254.854,102.626 253.5,97.5C 254.092,95.5775 255.092,93.9108 256.5,92.5 Z"/></g>
<g><path style="opacity:0.455" fill="#eaf5f0" d="M 355.5,386.5 C 355.5,387.5 355.5,388.5 355.5,389.5C 351.5,390.833 347.5,392.167 343.5,393.5C 347.164,390.665 351.164,388.332 355.5,386.5 Z"/></g>
<g><path style="opacity:0.361" fill="#ecf8f2" d="M 343.5,393.5 C 342.817,395.176 341.483,395.843 339.5,395.5C 340.514,394.326 341.847,393.66 343.5,393.5 Z"/></g>
<g><path style="opacity:0.51" fill="#eff8f3" d="M 339.5,395.5 C 338.817,397.176 337.483,397.843 335.5,397.5C 336.514,396.326 337.847,395.66 339.5,395.5 Z"/></g>
</svg>
