<?xml version="1.0" encoding="UTF-8"?>
<!DOCTYPE svg PUBLIC "-//W3C//DTD SVG 1.1//EN" "http://www.w3.org/Graphics/SVG/1.1/DTD/svg11.dtd">
<svg xmlns="http://www.w3.org/2000/svg" version="1.1" width="333px" height="326px" style="shape-rendering:geometricPrecision; text-rendering:geometricPrecision; image-rendering:optimizeQuality; fill-rule:evenodd; clip-rule:evenodd" xmlns:xlink="http://www.w3.org/1999/xlink">
<g><path style="opacity:0.999" fill="#f0eff0" d="M 47.5,261.5 C 47.5,261.167 47.5,260.833 47.5,260.5C 44.8809,256.379 41.7143,252.713 38,249.5C 31.8886,238.271 26.5553,226.605 22,214.5C 21.586,214.957 21.086,215.291 20.5,215.5C 17.0886,207.188 14.9219,198.521 14,189.5C 13.5045,191.473 13.3379,193.473 13.5,195.5C 12.0749,192.097 11.2415,188.43 11,184.5C 10.3333,175.833 10.3333,167.167 11,158.5C 15.3215,143.546 19.1549,128.546 22.5,113.5C 28.7297,107.919 33.3963,101.086 36.5,93C 36.3333,92.5 36.1667,92 36,91.5C 34.907,93.3492 33.5737,95.0158 32,96.5C 35.425,87.6785 40.425,79.6785 47,72.5C 47.6053,70.3646 47.1053,70.0313 45.5,71.5C 45.5,70.8333 45.5,70.1667 45.5,69.5C 54.7784,57.0556 66.1117,46.8889 79.5,39C 88.9714,35.0987 97.9714,30.4321 106.5,25C 111.678,23.202 117.011,22.202 122.5,22C 134.311,15.6695 146.978,12.8361 160.5,13.5C 168.519,13.946 176.519,14.6127 184.5,15.5C 197.276,19.5269 209.942,23.8603 222.5,28.5C 229.639,32.4051 236.972,35.7385 244.5,38.5C 244.5,39.5 244.5,40.5 244.5,41.5C 245.833,41.5 247.167,41.5 248.5,41.5C 248.5,42.5 248.5,43.5 248.5,44.5C 251.167,45.1667 253.833,45.8333 256.5,46.5C 256.5,47.8333 256.5,49.1667 256.5,50.5C 259.167,51.1667 261.833,51.8333 264.5,52.5C 264.5,53.5 264.5,54.5 264.5,55.5C 265.833,55.5 267.167,55.5 268.5,55.5C 268.5,56.5 268.5,57.5 268.5,58.5C 269.833,58.5 271.167,58.5 272.5,58.5C 272.5,59.5 272.5,60.5 272.5,61.5C 273.833,61.5 275.167,61.5 276.5,61.5C 276.5,62.8333 276.5,64.1667 276.5,65.5C 277.833,65.5 279.167,65.5 280.5,65.5C 280.5,67.1667 280.5,68.8333 280.5,70.5C 281.833,70.5 283.167,70.5 284.5,70.5C 284.5,71.8333 284.5,73.1667 284.5,74.5C 285.833,74.5 287.167,74.5 288.5,74.5C 288.5,76.1667 288.5,77.8333 288.5,79.5C 289.833,79.5 291.167,79.5 292.5,79.5C 292.5,81.5 292.5,83.5 292.5,85.5C 293.833,85.5 295.167,85.5 296.5,85.5C 296.5,88.5 296.5,91.5 296.5,94.5C 297.833,94.5 299.167,94.5 300.5,94.5C 300.5,97.1667 300.5,99.8333 300.5,102.5C 301.833,102.5 303.167,102.5 304.5,102.5C 304.5,105.833 304.5,109.167 304.5,112.5C 305.833,112.5 307.167,112.5 308.5,112.5C 308.5,118.5 308.5,124.5 308.5,130.5C 309.833,130.5 311.167,130.5 312.5,130.5C 312.5,140.167 312.5,149.833 312.5,159.5C 311.167,159.5 309.833,159.5 308.5,159.5C 308.5,173.5 308.5,187.5 308.5,201.5C 307.167,201.5 305.833,201.5 304.5,201.5C 304.5,206.167 304.5,210.833 304.5,215.5C 303.167,215.5 301.833,215.5 300.5,215.5C 300.5,219.167 300.5,222.833 300.5,226.5C 299.167,226.5 297.833,226.5 296.5,226.5C 296.5,229.833 296.5,233.167 296.5,236.5C 295.167,236.5 293.833,236.5 292.5,236.5C 292.5,238.833 292.5,241.167 292.5,243.5C 291.167,243.5 289.833,243.5 288.5,243.5C 288.5,245.833 288.5,248.167 288.5,250.5C 287.167,250.5 285.833,250.5 284.5,250.5C 284.5,252.5 284.5,254.5 284.5,256.5C 283.167,256.5 281.833,256.5 280.5,256.5C 280.5,258.167 280.5,259.833 280.5,261.5C 279.167,261.5 277.833,261.5 276.5,261.5C 276.5,263.167 276.5,264.833 276.5,266.5C 275.167,266.5 273.833,266.5 272.5,266.5C 272.5,267.833 272.5,269.167 272.5,270.5C 271.167,270.5 269.833,270.5 268.5,270.5C 268.5,271.833 268.5,273.167 268.5,274.5C 267.167,274.5 265.833,274.5 264.5,274.5C 264.5,275.833 264.5,277.167 264.5,278.5C 263.167,278.5 261.833,278.5 260.5,278.5C 260.5,279.5 260.5,280.5 260.5,281.5C 259.167,281.5 257.833,281.5 256.5,281.5C 256.5,282.833 256.5,284.167 256.5,285.5C 255.167,285.5 253.833,285.5 252.5,285.5C 252.5,286.5 252.5,287.5 252.5,288.5C 251.167,288.5 249.833,288.5 248.5,288.5C 248.5,289.5 248.5,290.5 248.5,291.5C 247.167,291.5 245.833,291.5 244.5,291.5C 244.5,292.5 244.5,293.5 244.5,294.5C 241.833,295.167 239.167,295.833 236.5,296.5C 236.5,297.5 236.5,298.5 236.5,299.5C 226.317,302.921 216.317,306.921 206.5,311.5C 186.844,316.957 166.844,318.79 146.5,317C 133.817,314.495 121.15,311.995 108.5,309.5C 107.43,312.872 105.597,312.872 103,309.5C 102.117,306.898 100.617,304.731 98.5,303C 91.5736,300.524 84.5736,298.357 77.5,296.5C 75.9293,294.118 75.096,291.451 75,288.5C 62.6733,282.673 53.5066,273.673 47.5,261.5 Z"/></g>
<g><path style="opacity:0.999" fill="#c1814e" d="M 147.5,25.5 C 148.822,25.33 149.989,25.6634 151,26.5C 152.667,29.1667 154.333,31.8333 156,34.5C 157.08,32.0038 158.414,29.6705 160,27.5C 161.11,25.9632 162.61,25.2965 164.5,25.5C 164.666,30.8437 164.499,36.1771 164,41.5C 163.667,41.8333 163.333,42.1667 163,42.5C 162.519,38.4686 161.853,34.4686 161,30.5C 159.259,33.3093 158.092,36.3093 157.5,39.5C 156.325,39.719 155.325,39.3857 154.5,38.5C 153.333,36.1667 152.167,33.8333 151,31.5C 150.825,35.211 150.325,38.8776 149.5,42.5C 147.789,36.9766 147.122,31.31 147.5,25.5 Z"/></g>
<g><path style="opacity:1" fill="#c1814e" d="M 177.5,25.5 C 178.496,25.4142 179.329,25.7476 180,26.5C 181.245,31.315 182.412,36.1483 183.5,41C 182.61,44.0399 181.61,43.8732 180.5,40.5C 176.443,38.8485 172.943,39.5151 170,42.5C 169.308,41.9747 168.808,41.3081 168.5,40.5C 171.271,35.2788 174.271,30.2788 177.5,25.5 Z"/></g>
<g><path style="opacity:1" fill="#c28250" d="M 190.5,27.5 C 191.822,27.33 192.989,27.6634 194,28.5C 195.71,32.7109 197.043,37.0443 198,41.5C 198.543,39.3686 199.376,37.3686 200.5,35.5C 201.476,38.497 201.31,41.497 200,44.5C 199.047,46.5922 197.714,46.9255 196,45.5C 195,41.5 194,37.5 193,33.5C 191.56,37.5778 190.06,41.5778 188.5,45.5C 188.167,44.5 187.833,43.5 187.5,42.5C 188.717,37.5235 189.717,32.5235 190.5,27.5 Z"/></g>
<g><path style="opacity:1" fill="#c78d60" d="M 200.5,29.5 C 201.5,29.5 202.5,29.5 203.5,29.5C 202.754,33.31 201.754,33.31 200.5,29.5 Z"/></g>
<g><path style="opacity:0.999" fill="#c38554" d="M 128.5,29.5 C 129.376,29.3691 130.043,29.7025 130.5,30.5C 129.363,32.6068 128.363,34.7735 127.5,37C 129.662,39.3277 131.995,41.4944 134.5,43.5C 135.833,44.5 135.833,45.5 134.5,46.5C 131.55,44.8847 128.884,42.8847 126.5,40.5C 125.867,43.557 125.534,46.557 125.5,49.5C 123.043,44.0144 121.043,38.3478 119.5,32.5C 120.5,32.5 121.5,32.5 122.5,32.5C 122.687,34.5643 123.187,36.5643 124,38.5C 125.513,35.4734 127.013,32.4734 128.5,29.5 Z"/></g>
<g><path style="opacity:1" fill="#eae1da" d="M 177.5,30.5 C 179.28,31.9899 179.946,33.9899 179.5,36.5C 177.712,36.7852 176.045,36.4519 174.5,35.5C 175.26,33.6396 176.26,31.973 177.5,30.5 Z"/></g>
<g><path style="opacity:0.999" fill="#c0804c" d="M 215.5,35.5 C 216.816,38.0866 217.483,41.0866 217.5,44.5C 217.333,47.5 217.167,50.5 217,53.5C 216.586,53.9574 216.086,54.2907 215.5,54.5C 214.534,52.604 214.201,50.604 214.5,48.5C 212.213,48.2761 210.047,47.6094 208,46.5C 206.715,46.9504 205.548,47.6171 204.5,48.5C 204.167,48.1667 203.833,47.8333 203.5,47.5C 207.215,43.1185 211.215,39.1185 215.5,35.5 Z"/></g>
<g><path style="opacity:0.999" fill="#c0804c" d="M 107.5,36.5 C 115.886,36.7724 116.22,37.6058 108.5,39C 103.971,44.6717 105.138,48.8383 112,51.5C 114.812,51.1829 116.979,49.8495 118.5,47.5C 119.189,50.5914 117.855,52.7581 114.5,54C 105.532,54.0124 102.032,49.5124 104,40.5C 105.376,39.2949 106.542,37.9616 107.5,36.5 Z"/></g>
<g><path style="opacity:1" fill="#eeeae9" d="M 213.5,40.5 C 215.256,41.5521 215.923,43.2188 215.5,45.5C 209.862,45.5559 209.195,43.8892 213.5,40.5 Z"/></g>
<g><path style="opacity:1" fill="#c28350" d="M 228.5,43.5 C 233.311,42.7401 236.978,44.4068 239.5,48.5C 239.192,49.3081 238.692,49.9747 238,50.5C 234.644,46.0517 230.644,45.3851 226,48.5C 222.898,55.3005 225.065,58.6338 232.5,58.5C 232.576,56.0771 231.576,54.2438 229.5,53C 229.833,52.5 230.167,52 230.5,51.5C 235.675,53.2143 236.675,56.2143 233.5,60.5C 224.85,62.0144 221.35,58.3477 223,49.5C 224.36,46.9774 226.193,44.9774 228.5,43.5 Z"/></g>
<g><path style="opacity:1" fill="#c2824f" d="M 89.5,46.5 C 92.9828,45.9159 95.9828,46.7492 98.5,49C 94.4369,47.5454 90.9369,48.3787 88,51.5C 87.1176,58.6177 90.2842,61.7844 97.5,61C 99.0253,58.0924 100.025,54.9257 100.5,51.5C 103.429,55.5049 103.096,59.1715 99.5,62.5C 89.1423,64.9726 84.6423,60.9726 86,50.5C 86.6897,48.6498 87.8564,47.3164 89.5,46.5 Z"/></g>
<g><path style="opacity:1" fill="#c28351" d="M 76.5,56.5 C 77.675,56.281 78.675,56.6143 79.5,57.5C 78.5,58.8333 77.5,60.1667 76.5,61.5C 79.0961,65.0191 81.9294,68.3525 85,71.5C 85.7494,72.635 85.5827,73.635 84.5,74.5C 81.3769,70.875 78.0436,67.375 74.5,64C 72.5826,64.0275 70.916,64.8608 69.5,66.5C 69.1667,66 68.8333,65.5 68.5,65C 71.3029,62.3617 73.9696,59.5284 76.5,56.5 Z"/></g>
<g><path style="opacity:1" fill="#c1814e" d="M 159.5,57.5 C 164.214,57.1734 168.88,57.5067 173.5,58.5C 171.604,59.4656 169.604,59.7989 167.5,59.5C 167.666,64.5111 167.499,69.5111 167,74.5C 166.586,74.9574 166.086,75.2907 165.5,75.5C 164.505,70.2079 164.172,64.8746 164.5,59.5C 162.219,59.9227 160.552,59.256 159.5,57.5 Z"/></g>
<g><path style="opacity:1" fill="#c28250" d="M 245.5,52.5 C 248.97,53.2876 251.637,55.2876 253.5,58.5C 253.167,58.8333 252.833,59.1667 252.5,59.5C 250.833,58.1667 249.167,56.8333 247.5,55.5C 246.167,56.1667 245.167,57.1667 244.5,58.5C 245.648,60.1487 246.981,61.6487 248.5,63C 247.975,63.6924 247.308,64.1924 246.5,64.5C 242.59,60.2145 240.424,60.8811 240,66.5C 241.972,67.3052 243.472,68.6385 244.5,70.5C 240.947,70.726 237.947,69.226 235.5,66C 238.665,61.3407 241.998,56.8407 245.5,52.5 Z"/></g>
<g><path style="opacity:1" fill="#c28452" d="M 146.5,58.5 C 154.886,58.7724 155.22,59.6058 147.5,61C 146.328,62.8684 146.495,64.7017 148,66.5C 151.482,64.9233 154.148,65.9233 156,69.5C 157.042,72.8039 155.875,74.9705 152.5,76C 149.322,76.6621 146.655,75.8288 144.5,73.5C 147.002,73.3787 149.668,73.2121 152.5,73C 153.86,71.0624 153.527,69.3957 151.5,68C 143.886,67.3185 142.219,64.1519 146.5,58.5 Z"/></g>
<g><path style="opacity:1" fill="#c28351" d="M 135.5,60.5 C 136.675,60.281 137.675,60.6143 138.5,61.5C 134.927,66.2477 134.594,71.2477 137.5,76.5C 137.167,77.1667 136.833,77.8333 136.5,78.5C 134.742,76.2075 133.576,73.5409 133,70.5C 130.778,68.6152 128.944,66.4485 127.5,64C 127.833,63.5 128.167,63 128.5,62.5C 130.167,63.8333 131.833,65.1667 133.5,66.5C 134.477,64.5891 135.143,62.5891 135.5,60.5 Z"/></g>
<g><path style="opacity:1" fill="#c1804c" d="M 195.5,60.5 C 196.496,60.4142 197.329,60.7476 198,61.5C 198.727,64.8642 199.56,68.1975 200.5,71.5C 202.316,70.1851 203.983,68.6851 205.5,67C 207.025,65.9914 208.692,65.4914 210.5,65.5C 209.334,70.8302 207.668,75.9968 205.5,81C 204.833,81.6667 204.167,81.6667 203.5,81C 204.573,77.8797 205.573,74.7131 206.5,71.5C 203.921,71.3236 201.921,72.6569 200.5,75.5C 199.675,76.3857 198.675,76.719 197.5,76.5C 196.949,64.5443 195.449,64.5443 193,76.5C 191.844,77.9928 191.01,77.8261 190.5,76C 191.876,70.707 193.542,65.5403 195.5,60.5 Z"/></g>
<g><path style="opacity:1" fill="#c1814e" d="M 257.5,63.5 C 258.5,63.5 259.5,63.5 260.5,63.5C 259.909,66.9399 258.909,70.2732 257.5,73.5C 260.478,74.6488 263.478,74.6488 266.5,73.5C 268,73.4528 269,74.1195 269.5,75.5C 265.507,79.3238 261.34,82.9905 257,86.5C 256.5,86 256,85.5 255.5,85C 258.473,82.6938 261.14,80.0272 263.5,77C 260.423,76.7399 257.423,77.2399 254.5,78.5C 253.833,78.1667 253.167,77.8333 252.5,77.5C 253.833,75.1667 255.167,72.8333 256.5,70.5C 256.167,70.1667 255.833,69.8333 255.5,69.5C 252.849,71.6499 250.349,73.9832 248,76.5C 247.308,75.9747 246.808,75.3081 246.5,74.5C 250.394,71.0546 254.06,67.3879 257.5,63.5 Z"/></g>
<g><path style="opacity:1" fill="#c38553" d="M 178.5,58.5 C 181.518,58.3354 184.518,58.502 187.5,59C 188.902,60.3425 188.569,61.1758 186.5,61.5C 184.547,60.8444 182.547,60.5111 180.5,60.5C 180.5,62.1667 180.5,63.8333 180.5,65.5C 182.5,65.5 184.5,65.5 186.5,65.5C 186.5,66.5 186.5,67.5 186.5,68.5C 184.167,68.5 181.833,68.5 179.5,68.5C 179.5,70.1667 179.5,71.8333 179.5,73.5C 181.833,73.5 184.167,73.5 186.5,73.5C 186.5,74.5 186.5,75.5 186.5,76.5C 183.223,76.7839 180.057,76.4505 177,75.5C 177.047,69.8124 177.547,64.1457 178.5,58.5 Z"/></g>
<g><path style="opacity:1" fill="#c48756" d="M 116.5,65.5 C 118.167,65.5 119.833,65.5 121.5,65.5C 121.5,66.5 121.5,67.5 121.5,68.5C 119.801,68.3398 118.134,68.5065 116.5,69C 115.071,73.0671 116.404,74.2338 120.5,72.5C 126.056,73.3811 127.722,76.3811 125.5,81.5C 122.736,83.6081 119.736,83.9415 116.5,82.5C 118.423,81.6922 120.423,81.1922 122.5,81C 125.167,79.3333 125.167,77.6667 122.5,76C 118.74,76.194 115.574,75.0273 113,72.5C 112.333,71.5 112.333,70.5 113,69.5C 114.376,68.2949 115.542,66.9616 116.5,65.5 Z"/></g>
<g><path style="opacity:0.996" fill="#d8dee2" d="M 22.5,113.5 C 26.4964,97.5084 34.1631,83.5084 45.5,71.5C 47.1053,70.0313 47.6053,70.3646 47,72.5C 40.425,79.6785 35.425,87.6785 32,96.5C 33.5737,95.0158 34.907,93.3492 36,91.5C 36.1667,92 36.3333,92.5 36.5,93C 33.3963,101.086 28.7297,107.919 22.5,113.5 Z"/></g>
<g><path style="opacity:0.998" fill="#c28452" d="M 63.5,70.5 C 65.9337,71.354 65.767,72.354 63,73.5C 60.6719,75.8157 61.0052,77.4824 64,78.5C 66.3607,77.4488 68.6941,76.4488 71,75.5C 76.6912,76.9018 77.8579,80.0684 74.5,85C 72.8333,85.8333 71.1667,86.6667 69.5,87.5C 68.6919,87.1924 68.0253,86.6924 67.5,86C 70.022,85.0433 72.1886,83.5433 74,81.5C 74.6172,80.5509 74.4506,79.7175 73.5,79C 70.1878,78.4617 67.0212,78.9617 64,80.5C 60.2606,80.0951 58.9273,78.0951 60,74.5C 60.6897,72.6498 61.8564,71.3164 63.5,70.5 Z"/></g>
<g><path style="opacity:1" fill="#c28350" d="M 272.5,81.5 C 275.9,82.5243 278.233,84.8577 279.5,88.5C 278.675,89.3857 277.675,89.719 276.5,89.5C 275.946,84.3903 273.946,83.557 270.5,87C 273.038,93.5074 272.038,94.0074 267.5,88.5C 264.887,89.331 263.72,90.9977 264,93.5C 265.353,94.6853 266.52,96.0186 267.5,97.5C 267,97.8333 266.5,98.1667 266,98.5C 263.392,96.6496 261.225,94.3162 259.5,91.5C 263.852,88.1426 268.185,84.8093 272.5,81.5 Z"/></g>
<g><path style="opacity:0.999" fill="#c28250" d="M 53.5,82.5 C 54.3764,82.3691 55.0431,82.7025 55.5,83.5C 54.5589,85.7721 53.2255,87.7721 51.5,89.5C 52.7598,90.3816 53.9264,91.3816 55,92.5C 56.5095,90.7923 58.0095,89.1256 59.5,87.5C 59.2711,89.9477 59.2711,92.4477 59.5,95C 60.5,95.5 61.5,96 62.5,96.5C 63.9197,94.7798 65.253,92.9465 66.5,91C 67.4835,90.4092 68.1501,90.7425 68.5,92C 67.1736,94.3173 65.8403,96.6506 64.5,99C 58.6653,97.6608 53.4986,94.8274 49,90.5C 50.1413,87.8021 51.6413,85.1354 53.5,82.5 Z"/></g>
<g><path style="opacity:1" fill="#c0804c" d="M 281.5,95.5 C 282.5,95.5 283.5,95.5 284.5,95.5C 283.008,100.643 280.342,105.143 276.5,109C 279.026,108.096 281.692,107.762 284.5,108C 270.638,115.976 268.971,113.643 279.5,101C 275.849,101.393 272.349,102.56 269,104.5C 268.5,104.167 268,103.833 267.5,103.5C 272.162,100.835 276.829,98.1687 281.5,95.5 Z"/></g>
<g><path style="opacity:1" fill="#c1824f" d="M 45.5,96.5 C 51.1741,99.8436 55.5074,104.51 58.5,110.5C 52.1836,111.447 45.8503,111.447 39.5,110.5C 39.5,109.5 39.5,108.5 39.5,107.5C 44.5527,108.192 49.5527,108.692 54.5,109C 51.1135,105.039 48.1135,100.873 45.5,96.5 Z"/></g>
<g><path style="opacity:1" fill="#bd7a43" d="M 286.5,104.5 C 288.337,104.639 288.67,105.306 287.5,106.5C 286.702,106.043 286.369,105.376 286.5,104.5 Z"/></g>
<g><path style="opacity:1" fill="#c1814e" d="M 289.5,111.5 C 290.376,111.369 291.043,111.702 291.5,112.5C 292.833,116.167 294.167,119.833 295.5,123.5C 295.192,124.308 294.692,124.975 294,125.5C 292.956,124.377 292.29,123.044 292,121.5C 287.033,121.081 282.2,122.081 277.5,124.5C 276.614,123.675 276.281,122.675 276.5,121.5C 280.941,120.576 285.275,119.242 289.5,117.5C 289.92,115.674 289.92,113.674 289.5,111.5 Z"/></g>
<g><path style="opacity:1" fill="#c1814e" d="M 36.5,115.5 C 41.8595,116.897 47.1929,118.397 52.5,120C 53.731,121.183 53.731,122.349 52.5,123.5C 48.51,121.16 44.1767,119.66 39.5,119C 37.5743,118.578 36.5743,117.411 36.5,115.5 Z"/></g>
<g><path style="opacity:1" fill="#faf9fa" d="M 117.5,115.5 C 119.167,115.5 120.833,115.5 122.5,115.5C 125.779,117.055 128.945,118.722 132,120.5C 138.169,117.688 144.669,116.855 151.5,118C 152.056,118.383 152.389,118.883 152.5,119.5C 148.372,129.881 148.539,140.215 153,150.5C 156.49,155.152 160.99,158.152 166.5,159.5C 166.477,161.927 165.977,164.26 165,166.5C 162.617,163.727 159.783,161.561 156.5,160C 146.075,156.216 135.408,153.382 124.5,151.5C 124.786,144.571 126.286,137.904 129,131.5C 129.667,129.167 129.667,126.833 129,124.5C 126.04,123.714 123.206,122.548 120.5,121C 118.84,119.512 117.84,117.679 117.5,115.5 Z"/></g>
<g><path style="opacity:1" fill="#cec5bc" d="M 122.5,115.5 C 123.251,114.427 124.251,114.26 125.5,115C 127.641,116.308 129.641,117.808 131.5,119.5C 138.506,115.083 145.84,114.416 153.5,117.5C 153.672,118.492 153.338,119.158 152.5,119.5C 152.389,118.883 152.056,118.383 151.5,118C 144.669,116.855 138.169,117.688 132,120.5C 128.945,118.722 125.779,117.055 122.5,115.5 Z"/></g>
<g><path style="opacity:1" fill="#062326" d="M 153.5,117.5 C 159.663,118.333 165.163,120.666 170,124.5C 174.658,122.561 179.491,122.061 184.5,123C 185.833,124.333 185.833,125.667 184.5,127C 181.268,128.466 177.935,129.633 174.5,130.5C 175.246,131.736 175.579,133.07 175.5,134.5C 176.11,135.391 176.443,136.391 176.5,137.5C 175.373,145.213 173.04,152.547 169.5,159.5C 168.5,159.5 167.5,159.5 166.5,159.5C 160.99,158.152 156.49,155.152 153,150.5C 148.539,140.215 148.372,129.881 152.5,119.5C 153.338,119.158 153.672,118.492 153.5,117.5 Z"/></g>
<g><path style="opacity:1" fill="#c48857" d="M 49.5,126.5 C 50.6935,126.97 51.3601,127.97 51.5,129.5C 51.1604,131.512 50.8271,133.512 50.5,135.5C 44.5637,134.318 38.5637,133.318 32.5,132.5C 32.281,131.325 32.6143,130.325 33.5,129.5C 38.3442,131.252 43.3442,132.252 48.5,132.5C 48.3253,130.379 48.6586,128.379 49.5,126.5 Z"/></g>
<g><path style="opacity:1" fill="#253d41" d="M 134.5,135.5 C 137.694,135.176 138.694,136.342 137.5,139C 136.207,139.49 134.873,139.657 133.5,139.5C 133.433,138.041 133.766,136.708 134.5,135.5 Z"/></g>
<g><path style="opacity:1" fill="#cdd3d4" d="M 157.5,138.5 C 162.712,137.492 164.878,139.492 164,144.5C 157.423,147.088 155.256,145.088 157.5,138.5 Z"/></g>
<g><path style="opacity:1" fill="#fafafa" d="M 176.5,137.5 C 182.479,138.298 188.479,138.965 194.5,139.5C 191.09,143.563 189.59,148.23 190,153.5C 191.968,156.813 193.968,160.146 196,163.5C 195.741,171.902 199.741,176.569 208,177.5C 217.384,178.307 224.217,174.64 228.5,166.5C 229.333,166.167 230.167,165.833 231,165.5C 236.796,168.489 242.963,169.656 249.5,169C 253.314,166.851 256.481,164.017 259,160.5C 259.667,158.5 259.667,156.5 259,154.5C 257.731,152.007 256.898,149.34 256.5,146.5C 256.897,145.475 257.563,145.308 258.5,146C 260.856,147.914 262.856,150.081 264.5,152.5C 265.819,157.445 266.986,162.445 268,167.5C 268.815,172.352 268.648,177.019 267.5,181.5C 261.937,173.174 255.937,172.674 249.5,180C 246.326,181.725 242.993,183.058 239.5,184C 236.197,187.795 235.697,191.962 238,196.5C 240.916,198.041 243.749,199.707 246.5,201.5C 247.059,206.689 249.392,210.856 253.5,214C 256.221,214.602 258.887,214.435 261.5,213.5C 262.139,214.097 262.472,214.93 262.5,216C 259.905,226.143 257.905,236.309 256.5,246.5C 255.5,246.5 254.5,246.5 253.5,246.5C 252.791,245.596 251.791,245.263 250.5,245.5C 250.666,239.824 250.499,234.157 250,228.5C 248.024,221.621 246.691,214.621 246,207.5C 245.439,206.978 244.772,206.645 244,206.5C 238.131,209.788 231.965,212.288 225.5,214C 212.807,215.446 200.14,215.78 187.5,215C 184.703,222.23 183.037,229.73 182.5,237.5C 181.167,237.5 179.833,237.5 178.5,237.5C 178.414,235.323 177.747,233.323 176.5,231.5C 180.73,225.237 180.396,219.237 175.5,213.5C 176.544,211.232 176.711,208.899 176,206.5C 174.279,203.961 172.446,201.628 170.5,199.5C 170.665,196.15 170.498,192.817 170,189.5C 168.062,186.61 165.895,183.944 163.5,181.5C 165.429,174.164 167.429,166.831 169.5,159.5C 173.04,152.547 175.373,145.213 176.5,137.5 Z"/></g>
<g><path style="opacity:1" fill="#bdb7af" d="M 175.5,134.5 C 176.756,134.461 177.756,134.961 178.5,136C 187.004,136.651 195.337,137.484 203.5,138.5C 200.391,138.264 197.391,138.597 194.5,139.5C 188.479,138.965 182.479,138.298 176.5,137.5C 176.443,136.391 176.11,135.391 175.5,134.5 Z"/></g>
<g><path style="opacity:1" fill="#082428" d="M 158.5,140.5 C 160.346,140.222 161.68,140.889 162.5,142.5C 161.311,143.429 159.978,143.762 158.5,143.5C 158.5,142.5 158.5,141.5 158.5,140.5 Z"/></g>
<g><path style="opacity:1" fill="#beb0a4" d="M 117.5,115.5 C 117.84,117.679 118.84,119.512 120.5,121C 123.206,122.548 126.04,123.714 129,124.5C 129.667,126.833 129.667,129.167 129,131.5C 126.286,137.904 124.786,144.571 124.5,151.5C 135.408,153.382 146.075,156.216 156.5,160C 159.783,161.561 162.617,163.727 165,166.5C 165.977,164.26 166.477,161.927 166.5,159.5C 167.5,159.5 168.5,159.5 169.5,159.5C 167.429,166.831 165.429,174.164 163.5,181.5C 165.895,183.944 168.062,186.61 170,189.5C 170.498,192.817 170.665,196.15 170.5,199.5C 169.85,199.804 169.183,200.137 168.5,200.5C 166.615,195.269 162.948,192.936 157.5,193.5C 158.263,192.732 159.263,192.232 160.5,192C 157.693,184.764 153.026,182.931 146.5,186.5C 139.295,184.752 131.961,182.919 124.5,181C 120.084,178.588 116.251,175.422 113,171.5C 111.298,164.755 112.798,158.922 117.5,154C 119.025,152.991 120.692,152.491 122.5,152.5C 123.608,144.234 125.274,136.067 127.5,128C 127.167,127.167 126.833,126.333 126.5,125.5C 120.798,124.628 117.131,121.461 115.5,116C 116.031,114.282 116.698,114.115 117.5,115.5 Z"/></g>
<g><path style="opacity:1" fill="#042125" d="M 203.5,138.5 C 219.091,140.542 234.758,141.709 250.5,142C 253.254,142.599 255.254,144.099 256.5,146.5C 256.898,149.34 257.731,152.007 259,154.5C 259.667,156.5 259.667,158.5 259,160.5C 256.481,164.017 253.314,166.851 249.5,169C 242.963,169.656 236.796,168.489 231,165.5C 230.167,165.833 229.333,166.167 228.5,166.5C 224.217,174.64 217.384,178.307 208,177.5C 199.741,176.569 195.741,171.902 196,163.5C 193.968,160.146 191.968,156.813 190,153.5C 189.59,148.23 191.09,143.563 194.5,139.5C 197.391,138.597 200.391,138.264 203.5,138.5 Z"/></g>
<g><path style="opacity:1" fill="#9bb778" d="M 106.5,294.5 C 106.768,291.881 106.435,289.381 105.5,287C 99.372,284.437 93.7053,281.103 88.5,277C 87.2506,276.26 86.2506,276.427 85.5,277.5C 75.6225,273.49 69.7892,266.49 68,256.5C 59.4969,243.498 51.4969,230.165 44,216.5C 40.3739,204.747 38.7072,192.747 39,180.5C 59.4232,180.138 79.9232,180.138 100.5,180.5C 100.258,190.192 101.924,199.526 105.5,208.5C 103.29,209.201 101.456,210.535 100,212.5C 97.8471,210.556 95.3471,210.056 92.5,211C 88.3532,214.166 84.1866,217.332 80,220.5C 79.2797,222.112 79.4464,223.612 80.5,225C 75.2261,228.298 74.2261,232.631 77.5,238C 77.1667,238.333 76.8333,238.667 76.5,239C 77.3081,239.308 77.9747,239.808 78.5,240.5C 76.2439,247.334 78.5772,251.334 85.5,252.5C 85.0178,257.682 87.3511,260.349 92.5,260.5C 92.6896,265.37 93.3563,270.036 94.5,274.5C 94.4142,275.496 94.7476,276.329 95.5,277C 98.146,277.497 100.813,277.664 103.5,277.5C 103.737,276.209 103.404,275.209 102.5,274.5C 102.552,270.802 102.886,267.135 103.5,263.5C 104.833,263.5 106.167,263.5 107.5,263.5C 107.185,267.371 107.518,271.038 108.5,274.5C 108.973,275.906 109.973,276.573 111.5,276.5C 111.918,277.222 112.584,277.722 113.5,278C 111.684,279.315 110.017,280.815 108.5,282.5C 109.537,286.087 111.037,286.087 113,282.5C 114.009,280.975 114.509,279.308 114.5,277.5C 115.791,277.737 116.791,277.404 117.5,276.5C 117.737,275.209 117.404,274.209 116.5,273.5C 116.5,270.5 116.5,267.5 116.5,264.5C 119.374,264.377 121.874,263.377 124,261.5C 124.816,262.823 125.983,263.489 127.5,263.5C 127.552,267.198 127.886,270.865 128.5,274.5C 130.675,277.562 133.509,278.228 137,276.5C 137.74,275.251 137.573,274.251 136.5,273.5C 136.505,269.466 136.838,265.466 137.5,261.5C 138.5,262.167 139.5,262.833 140.5,263.5C 140.808,267.36 141.475,271.026 142.5,274.5C 143.492,276.026 144.992,276.693 147,276.5C 148.167,276.333 149.333,276.167 150.5,276C 151.774,275.023 151.774,274.189 150.5,273.5C 150.294,269.102 150.627,264.768 151.5,260.5C 153.527,260.662 155.527,260.495 157.5,260C 160.998,256.794 164.998,254.461 169.5,253C 171.016,251.103 171.683,248.936 171.5,246.5C 172.791,246.737 173.791,246.404 174.5,245.5C 177.279,245.721 179.946,245.388 182.5,244.5C 194.67,240.963 205.003,234.63 213.5,225.5C 213.665,229.864 214.998,230.364 217.5,227C 222.23,225.348 224.896,226.848 225.5,231.5C 227.885,230.708 229.885,229.374 231.5,227.5C 230.708,233.13 230.375,238.797 230.5,244.5C 229.639,246.386 228.639,248.22 227.5,250C 229.925,250.293 231.758,251.459 233,253.5C 234.434,251.864 236.267,250.864 238.5,250.5C 239.466,248.604 239.799,246.604 239.5,244.5C 242.297,236.517 243.963,228.183 244.5,219.5C 244.5,219.167 244.5,218.833 244.5,218.5C 246.255,220.761 247.422,223.428 248,226.5C 249.418,233.209 249.584,239.876 248.5,246.5C 248.167,248.5 247.833,250.5 247.5,252.5C 251.167,252.5 254.833,252.5 258.5,252.5C 258.833,250.5 259.167,248.5 259.5,246.5C 259.739,233.878 261.739,221.544 265.5,209.5C 267.22,201.565 268.554,193.565 269.5,185.5C 269.338,183.473 269.505,181.473 270,179.5C 271.688,183.304 273.521,186.97 275.5,190.5C 274.949,185.014 273.116,180.014 270,175.5C 270.038,168.572 268.872,161.906 266.5,155.5C 273.356,153.747 280.356,152.747 287.5,152.5C 296.886,204.849 281.552,248.349 241.5,283C 198.611,311.896 153.611,315.729 106.5,294.5 Z"/></g>
<g><path style="opacity:0.159" fill="#fbfbfc" d="M 45.5,69.5 C 45.5,70.1667 45.5,70.8333 45.5,71.5C 34.1631,83.5084 26.4964,97.5084 22.5,113.5C 19.1549,128.546 15.3215,143.546 11,158.5C 10.3333,167.167 10.3333,175.833 11,184.5C 11.2415,188.43 12.0749,192.097 13.5,195.5C 15.5482,209.479 19.7149,222.812 26,235.5C 31.0438,241.892 35.3771,248.892 39,256.5C 41.8169,257.894 44.6503,259.227 47.5,260.5C 47.5,260.833 47.5,261.167 47.5,261.5C 44.6114,260.992 41.7781,260.325 39,259.5C 34.0835,249.994 28.4168,240.994 22,232.5C 12.3772,209.095 8.04382,184.762 9,159.5C 12.3901,144.939 16.5568,130.606 21.5,116.5C 20.5282,113.536 20.3615,110.536 21,107.5C 26.4385,92.9268 34.6051,80.2602 45.5,69.5 Z"/></g>
<g><path style="opacity:1" fill="#bdb6a3" d="M 264.5,152.5 C 265.906,152.973 266.573,153.973 266.5,155.5C 268.872,161.906 270.038,168.572 270,175.5C 273.116,180.014 274.949,185.014 275.5,190.5C 273.521,186.97 271.688,183.304 270,179.5C 269.505,181.473 269.338,183.473 269.5,185.5C 268.655,184.329 267.989,182.995 267.5,181.5C 268.648,177.019 268.815,172.352 268,167.5C 266.986,162.445 265.819,157.445 264.5,152.5 Z"/></g>
<g><path style="opacity:1" fill="#6e736e" d="M 124.5,160.5 C 130.209,159.678 131.543,161.511 128.5,166C 123.728,166.81 122.395,164.977 124.5,160.5 Z"/></g>
<g><path style="opacity:1" fill="#707570" d="M 146.5,165.5 C 148.5,165.5 150.5,165.5 152.5,165.5C 152.993,171.547 150.826,172.88 146,169.5C 145.421,168.072 145.588,166.738 146.5,165.5 Z"/></g>
<g><path style="opacity:1" fill="#052225" d="M 267.5,181.5 C 267.989,182.995 268.655,184.329 269.5,185.5C 268.554,193.565 267.22,201.565 265.5,209.5C 263.833,210.5 262.5,211.833 261.5,213.5C 258.887,214.435 256.221,214.602 253.5,214C 249.392,210.856 247.059,206.689 246.5,201.5C 243.749,199.707 240.916,198.041 238,196.5C 235.697,191.962 236.197,187.795 239.5,184C 242.993,183.058 246.326,181.725 249.5,180C 255.937,172.674 261.937,173.174 267.5,181.5 Z"/></g>
<g><path style="opacity:1" fill="#ac324d" d="M 130.5,173.5 C 134.255,179.275 138.922,179.942 144.5,175.5C 145.754,177.259 145.421,178.759 143.5,180C 140.262,181.368 136.928,181.701 133.5,181C 130.961,179.195 129.961,176.695 130.5,173.5 Z"/></g>
<g><path style="opacity:1" fill="#082529" d="M 172.5,174.5 C 178.913,174.808 185.246,175.641 191.5,177C 193.617,178.731 195.117,180.898 196,183.5C 200.038,185.586 201.372,188.92 200,193.5C 194.733,202.695 187.233,204.862 177.5,200C 175.714,199.215 174.214,198.049 173,196.5C 173.138,191.117 171.971,186.117 169.5,181.5C 169.93,178.862 170.93,176.529 172.5,174.5 Z"/></g>
<g><path style="opacity:1" fill="#0d2629" d="M 157.5,193.5 C 154.937,189.743 151.27,188.076 146.5,188.5C 146.5,187.833 146.5,187.167 146.5,186.5C 153.026,182.931 157.693,184.764 160.5,192C 159.263,192.232 158.263,192.732 157.5,193.5 Z"/></g>
<g><path style="opacity:1" fill="#e6ddd2" d="M 146.5,188.5 C 151.27,188.076 154.937,189.743 157.5,193.5C 162.948,192.936 166.615,195.269 168.5,200.5C 169.183,200.137 169.85,199.804 170.5,199.5C 172.446,201.628 174.279,203.961 176,206.5C 176.711,208.899 176.544,211.232 175.5,213.5C 180.396,219.237 180.73,225.237 176.5,231.5C 177.747,233.323 178.414,235.323 178.5,237.5C 178.5,237.833 178.5,238.167 178.5,238.5C 177.492,241.028 175.826,243.195 173.5,245C 173.728,245.399 174.062,245.565 174.5,245.5C 173.791,246.404 172.791,246.737 171.5,246.5C 171.683,248.936 171.016,251.103 169.5,253C 164.998,254.461 160.998,256.794 157.5,260C 155.527,260.495 153.527,260.662 151.5,260.5C 148.332,263.056 144.666,264.056 140.5,263.5C 139.5,262.833 138.5,262.167 137.5,261.5C 134.495,263.299 131.162,263.966 127.5,263.5C 125.983,263.489 124.816,262.823 124,261.5C 121.874,263.377 119.374,264.377 116.5,264.5C 113.901,264.451 111.734,263.451 110,261.5C 109.005,262.066 108.172,262.733 107.5,263.5C 106.167,263.5 104.833,263.5 103.5,263.5C 100,262.025 96.3334,261.025 92.5,260.5C 87.3511,260.349 85.0178,257.682 85.5,252.5C 78.5772,251.334 76.2439,247.334 78.5,240.5C 77.9747,239.808 77.3081,239.308 76.5,239C 76.8333,238.667 77.1667,238.333 77.5,238C 74.2261,232.631 75.2261,228.298 80.5,225C 79.4464,223.612 79.2797,222.112 80,220.5C 84.1866,217.332 88.3532,214.166 92.5,211C 95.3471,210.056 97.8471,210.556 100,212.5C 101.456,210.535 103.29,209.201 105.5,208.5C 107.917,208.978 110.084,209.978 112,211.5C 112.808,206.521 115.642,203.854 120.5,203.5C 120.407,197.527 123.407,194.694 129.5,195C 132.695,189.797 136.861,188.63 142,191.5C 143.271,190.117 144.771,189.117 146.5,188.5 Z"/></g>
<g><path style="opacity:1" fill="#102a2e" d="M 223.5,189.5 C 230.537,189.338 232.037,192.005 228,197.5C 224.562,202.081 220.062,203.581 214.5,202C 210.633,198.751 210.633,195.418 214.5,192C 217.167,191.667 219.833,191.333 222.5,191C 223.056,190.617 223.389,190.117 223.5,189.5 Z"/></g>
<g><path style="opacity:0.999" fill="#7f706d" d="M 275.5,190.5 C 277.767,193.271 280.267,195.938 283,198.5C 284.411,200.65 285.245,202.984 285.5,205.5C 282.675,205.919 280.509,204.919 279,202.5C 277.827,198.469 276.66,194.469 275.5,190.5 Z"/></g>
<g><path style="opacity:1" fill="#b2a194" d="M 160.5,205.5 C 162.371,205.859 163.871,206.859 165,208.5C 171.429,215.894 173.095,224.227 170,233.5C 159.528,244.366 147.694,246.199 134.5,239C 131.502,236.671 129.502,233.671 128.5,230C 132.53,226.676 133.53,222.51 131.5,217.5C 135.729,216.936 138.396,214.603 139.5,210.5C 144.569,212.578 148.402,211.244 151,206.5C 154.492,209.235 157.658,208.902 160.5,205.5 Z"/></g>
<g><path style="opacity:0.995" fill="#d9dee3" d="M 47.5,260.5 C 44.6503,259.227 41.8169,257.894 39,256.5C 35.3771,248.892 31.0438,241.892 26,235.5C 19.7149,222.812 15.5482,209.479 13.5,195.5C 13.3379,193.473 13.5045,191.473 14,189.5C 14.9219,198.521 17.0886,207.188 20.5,215.5C 21.086,215.291 21.586,214.957 22,214.5C 26.5553,226.605 31.8886,238.271 38,249.5C 41.7143,252.713 44.8809,256.379 47.5,260.5 Z"/></g>
<g><path style="opacity:1" fill="#e6e4e4" d="M 161.5,222.5 C 164.309,219.526 163.976,216.859 160.5,214.5C 160.082,213.778 159.416,213.278 158.5,213C 166.304,212.809 168.304,216.142 164.5,223C 163.251,223.74 162.251,223.573 161.5,222.5 Z"/></g>
<g><path style="opacity:1" fill="#282425" d="M 160.5,214.5 C 163.976,216.859 164.309,219.526 161.5,222.5C 157.923,223.292 155.923,221.625 155.5,217.5C 156.073,214.915 157.739,213.915 160.5,214.5 Z"/></g>
<g><path style="opacity:1" fill="#c5b6ab" d="M 253.5,246.5 C 251.833,246.5 250.167,246.5 248.5,246.5C 249.584,239.876 249.418,233.209 248,226.5C 247.422,223.428 246.255,220.761 244.5,218.5C 245.505,215.132 245.172,211.799 243.5,208.5C 233.061,214.565 221.727,217.565 209.5,217.5C 202.557,216.206 195.557,216.206 188.5,217.5C 186.199,224.391 184.533,231.391 183.5,238.5C 181.833,238.5 180.167,238.5 178.5,238.5C 178.5,238.167 178.5,237.833 178.5,237.5C 179.833,237.5 181.167,237.5 182.5,237.5C 183.037,229.73 184.703,222.23 187.5,215C 200.14,215.78 212.807,215.446 225.5,214C 231.965,212.288 238.131,209.788 244,206.5C 244.772,206.645 245.439,206.978 246,207.5C 246.691,214.621 248.024,221.621 250,228.5C 250.499,234.157 250.666,239.824 250.5,245.5C 251.791,245.263 252.791,245.596 253.5,246.5 Z"/></g>
<g><path style="opacity:1" fill="#e97f91" d="M 244.5,218.5 C 244.5,218.833 244.5,219.167 244.5,219.5C 243.599,220.29 242.932,221.29 242.5,222.5C 239.448,223.777 238.115,226.11 238.5,229.5C 237.5,229.5 236.5,229.5 235.5,229.5C 235.719,228.325 235.386,227.325 234.5,226.5C 233.893,226.624 233.56,226.957 233.5,227.5C 232.833,227.5 232.167,227.5 231.5,227.5C 229.885,229.374 227.885,230.708 225.5,231.5C 224.896,226.848 222.23,225.348 217.5,227C 214.998,230.364 213.665,229.864 213.5,225.5C 212.189,222.846 210.855,220.179 209.5,217.5C 221.727,217.565 233.061,214.565 243.5,208.5C 245.172,211.799 245.505,215.132 244.5,218.5 Z"/></g>
<g><path style="opacity:1" fill="#b4a396" d="M 118.5,215.5 C 120.916,216.968 123.583,217.635 126.5,217.5C 123.901,227.974 117.234,232.141 106.5,230C 101.59,224.21 102.924,221.21 110.5,221C 113.756,219.884 116.422,218.051 118.5,215.5 Z"/></g>
<g><path style="opacity:1" fill="#efeeef" d="M 209.5,217.5 C 210.855,220.179 212.189,222.846 213.5,225.5C 205.003,234.63 194.67,240.963 182.5,244.5C 183.341,242.621 183.675,240.621 183.5,238.5C 184.533,231.391 186.199,224.391 188.5,217.5C 195.557,216.206 202.557,216.206 209.5,217.5 Z"/></g>
<g><path style="opacity:1" fill="#e8e7e6" d="M 142.5,218.5 C 139.966,221.142 139.966,223.976 142.5,227C 143.793,227.49 145.127,227.657 146.5,227.5C 139.046,229.995 136.379,227.328 138.5,219.5C 139.775,217.811 141.108,217.478 142.5,218.5 Z"/></g>
<g><path style="opacity:1" fill="#2a2627" d="M 142.5,218.5 C 148.72,219.213 150.053,222.213 146.5,227.5C 145.127,227.657 143.793,227.49 142.5,227C 139.966,223.976 139.966,221.142 142.5,218.5 Z"/></g>
<g><path style="opacity:0.999" fill="#faf6f6" d="M 242.5,222.5 C 241.981,229.993 240.647,237.326 238.5,244.5C 236.5,244.5 234.5,244.5 232.5,244.5C 232.214,238.741 232.548,233.075 233.5,227.5C 233.56,226.957 233.893,226.624 234.5,226.5C 235.386,227.325 235.719,228.325 235.5,229.5C 236.5,229.5 237.5,229.5 238.5,229.5C 238.115,226.11 239.448,223.777 242.5,222.5 Z"/></g>
<g><path style="opacity:1" fill="#bfb6a4" d="M 244.5,219.5 C 243.963,228.183 242.297,236.517 239.5,244.5C 239.167,244.5 238.833,244.5 238.5,244.5C 240.647,237.326 241.981,229.993 242.5,222.5C 242.932,221.29 243.599,220.29 244.5,219.5 Z"/></g>
<g><path style="opacity:1" fill="#c0b7a8" d="M 265.5,209.5 C 261.739,221.544 259.739,233.878 259.5,246.5C 258.5,246.5 257.5,246.5 256.5,246.5C 257.905,236.309 259.905,226.143 262.5,216C 262.472,214.93 262.139,214.097 261.5,213.5C 262.5,211.833 263.833,210.5 265.5,209.5 Z"/></g>
<g><path style="opacity:1" fill="#beb6a5" d="M 231.5,227.5 C 232.167,227.5 232.833,227.5 233.5,227.5C 232.548,233.075 232.214,238.741 232.5,244.5C 231.833,244.5 231.167,244.5 230.5,244.5C 230.375,238.797 230.708,233.13 231.5,227.5 Z"/></g>
<g><path style="opacity:1" fill="#5a4f54" d="M 178.5,238.5 C 180.167,238.5 181.833,238.5 183.5,238.5C 183.675,240.621 183.341,242.621 182.5,244.5C 179.946,245.388 177.279,245.721 174.5,245.5C 174.062,245.565 173.728,245.399 173.5,245C 175.826,243.195 177.492,241.028 178.5,238.5 Z"/></g>
<g><path style="opacity:0.998" fill="#574f4f" d="M 230.5,244.5 C 231.167,244.5 231.833,244.5 232.5,244.5C 234.5,244.5 236.5,244.5 238.5,244.5C 238.833,244.5 239.167,244.5 239.5,244.5C 239.799,246.604 239.466,248.604 238.5,250.5C 236.267,250.864 234.434,251.864 233,253.5C 231.758,251.459 229.925,250.293 227.5,250C 228.639,248.22 229.639,246.386 230.5,244.5 Z"/></g>
<g><path style="opacity:0.999" fill="#554c4d" d="M 248.5,246.5 C 250.167,246.5 251.833,246.5 253.5,246.5C 254.5,246.5 255.5,246.5 256.5,246.5C 257.5,246.5 258.5,246.5 259.5,246.5C 259.167,248.5 258.833,250.5 258.5,252.5C 254.833,252.5 251.167,252.5 247.5,252.5C 247.833,250.5 248.167,248.5 248.5,246.5 Z"/></g>
<g><path style="opacity:0.999" fill="#b2a394" d="M 92.5,260.5 C 96.3334,261.025 100,262.025 103.5,263.5C 102.886,267.135 102.552,270.802 102.5,274.5C 99.8333,274.5 97.1667,274.5 94.5,274.5C 93.3563,270.036 92.6896,265.37 92.5,260.5 Z"/></g>
<g><path style="opacity:1" fill="#68594c" d="M 116.5,264.5 C 116.5,267.5 116.5,270.5 116.5,273.5C 113.873,274.092 111.206,274.425 108.5,274.5C 107.518,271.038 107.185,267.371 107.5,263.5C 108.172,262.733 109.005,262.066 110,261.5C 111.734,263.451 113.901,264.451 116.5,264.5 Z"/></g>
<g><path style="opacity:1" fill="#6b5c4e" d="M 151.5,260.5 C 150.627,264.768 150.294,269.102 150.5,273.5C 147.615,273.194 144.948,273.527 142.5,274.5C 141.475,271.026 140.808,267.36 140.5,263.5C 144.666,264.056 148.332,263.056 151.5,260.5 Z"/></g>
<g><path style="opacity:1" fill="#b4a396" d="M 137.5,261.5 C 136.838,265.466 136.505,269.466 136.5,273.5C 133.946,274.388 131.279,274.721 128.5,274.5C 127.886,270.865 127.552,267.198 127.5,263.5C 131.162,263.966 134.495,263.299 137.5,261.5 Z"/></g>
<g><path style="opacity:1" fill="#4c533d" d="M 82.5,267.5 C 83.6266,268.122 84.6266,268.955 85.5,270C 83.5106,270.519 82.5106,269.686 82.5,267.5 Z"/></g>
<g><path style="opacity:1" fill="#282423" d="M 116.5,273.5 C 117.404,274.209 117.737,275.209 117.5,276.5C 115.5,276.5 113.5,276.5 111.5,276.5C 109.973,276.573 108.973,275.906 108.5,274.5C 111.206,274.425 113.873,274.092 116.5,273.5 Z"/></g>
<g><path style="opacity:1" fill="#2d2826" d="M 150.5,273.5 C 151.774,274.189 151.774,275.023 150.5,276C 149.333,276.167 148.167,276.333 147,276.5C 144.992,276.693 143.492,276.026 142.5,274.5C 144.948,273.527 147.615,273.194 150.5,273.5 Z"/></g>
<g><path style="opacity:1" fill="#36312f" d="M 94.5,274.5 C 97.1667,274.5 99.8333,274.5 102.5,274.5C 103.404,275.209 103.737,276.209 103.5,277.5C 100.813,277.664 98.146,277.497 95.5,277C 94.7476,276.329 94.4142,275.496 94.5,274.5 Z"/></g>
<g><path style="opacity:1" fill="#332f2d" d="M 136.5,273.5 C 137.573,274.251 137.74,275.251 137,276.5C 133.509,278.228 130.675,277.562 128.5,274.5C 131.279,274.721 133.946,274.388 136.5,273.5 Z"/></g>
<g><path style="opacity:1" fill="#7f9963" d="M 215.5,273.5 C 218.982,273.127 221.982,274.127 224.5,276.5C 225.891,275.355 227.224,275.355 228.5,276.5C 226.5,277.167 224.5,277.833 222.5,278.5C 223.325,279.386 224.325,279.719 225.5,279.5C 225.5,280.5 225.5,281.5 225.5,282.5C 224.156,281.016 221.822,280.182 218.5,280C 216.829,278.157 215.829,275.991 215.5,273.5 Z"/></g>
<g><path style="opacity:1" fill="#6c7b55" d="M 111.5,276.5 C 113.5,276.5 115.5,276.5 117.5,276.5C 116.791,277.404 115.791,277.737 114.5,277.5C 114.509,279.308 114.009,280.975 113,282.5C 111.037,286.087 109.537,286.087 108.5,282.5C 110.017,280.815 111.684,279.315 113.5,278C 112.584,277.722 111.918,277.222 111.5,276.5 Z"/></g>
<g><path style="opacity:0.999" fill="#dde2d6" d="M 106.5,294.5 C 105.732,293.737 105.232,292.737 105,291.5C 103.887,292.711 102.72,292.711 101.5,291.5C 95.3256,287.58 89.3256,283.413 83.5,279C 84.4158,278.722 85.0825,278.222 85.5,277.5C 86.2506,276.427 87.2506,276.26 88.5,277C 93.7053,281.103 99.372,284.437 105.5,287C 106.435,289.381 106.768,291.881 106.5,294.5 Z"/></g>
<g><path style="opacity:0.996" fill="#4b513d" d="M 215.5,287.5 C 216.643,287.908 217.643,288.575 218.5,289.5C 216.604,290.639 215.604,289.973 215.5,287.5 Z"/></g>
<g><path style="opacity:1" fill="#667551" d="M 191.5,287.5 C 193.176,288.183 193.843,289.517 193.5,291.5C 192.167,291.5 190.833,291.5 189.5,291.5C 189.527,289.801 190.194,288.467 191.5,287.5 Z"/></g>
<g><path style="opacity:0.996" fill="#7e9263" d="M 120.5,286.5 C 121.043,286.56 121.376,286.893 121.5,287.5C 120.926,289.059 120.26,290.559 119.5,292C 120.308,292.308 120.975,292.808 121.5,293.5C 118.107,294.816 115.441,293.816 113.5,290.5C 114.167,290.167 114.833,289.833 115.5,289.5C 116.369,290.392 117.369,290.892 118.5,291C 119.267,289.53 119.933,288.03 120.5,286.5 Z"/></g>
</svg>
