<?xml version="1.0" encoding="iso-8859-1"?>
<!-- Uploaded to: SVG Repo, www.svgrepo.com, Generator: SVG Repo Mixer Tools -->
<svg height="800px" width="800px" version="1.1" id="Layer_1" xmlns="http://www.w3.org/2000/svg" xmlns:xlink="http://www.w3.org/1999/xlink" 
	 viewBox="0 0 512 512" xml:space="preserve">
<path style="fill:#D6DAE6;" d="M118.959,155.99L118.959,155.99L118.959,155.99c-31.788-18.738-63.285,24.615-35.641,49.055l0,0l0,0
	c-36.022-7.999-52.582,42.966-18.738,57.668l0,0l0,0c-36.731,3.524-36.731,57.112,0,60.636l0,0l0,0
	c-33.844,14.702-17.284,65.667,18.738,57.668l0,0l0,0c-27.645,24.441,3.854,67.794,35.641,49.055l0,0l0,0
	c-18.739,31.788,24.614,63.285,49.055,35.641l0,0l0,0c-7.999,36.022,42.966,52.582,57.668,18.738l0,0l0,0
	c3.524,36.731,57.112,36.731,60.636,0l0,0l0,0c14.702,33.844,65.667,17.284,57.668-18.738l0,0l0,0
	c24.441,27.645,67.794-3.854,49.055-35.641l0,0l0,0c31.788,18.739,63.285-24.614,35.641-49.055l0,0l0,0
	c36.022,7.999,52.582-42.966,18.738-57.668l0,0l0,0c36.731-3.524,36.731-57.112,0-60.636l0,0l0,0
	c33.844-14.702,17.284-65.667-18.738-57.668l0,0l0,0c27.645-24.441-3.854-67.794-35.641-49.055l0,0l0,0L118.959,155.99
	L118.959,155.99z"/>
<g>
	<path style="fill:#FFA0C1;" d="M450.783,103.154c18.593-2.539,34.355,13.747,31.18,32.241
		c-5.79,33.73-29.437,78.244-118.152,50.753l-6.667-38.649C393.989,116.845,427.569,106.323,450.783,103.154z"/>
	<path style="fill:#FFA0C1;" d="M61.218,103.154c-18.593-2.539-34.355,13.747-31.18,32.241c5.79,33.73,29.437,78.244,118.152,50.753
		l6.667-38.649C118.011,116.845,84.43,106.323,61.218,103.154z"/>
</g>
<path style="opacity:0.1;enable-background:new    ;" d="M57.649,135.394c-2.24-13.049,4.953-24.988,15.909-30.002
	c-4.374-0.984-8.502-1.715-12.341-2.24c-18.593-2.538-34.355,13.747-31.18,32.241c4.945,28.802,22.918,65.456,83.295,58.44
	C74.754,188.44,61.74,159.228,57.649,135.394z"/>
<path style="opacity:0.1;enable-background:new    ;" d="M363.811,186.148c25.014,7.751,44.853,9.777,60.579,7.935
	c-9.559-24.183-23.105-46.501-40.23-66.062c-8.724,5.36-17.767,11.784-27.015,19.479L363.811,186.148z"/>
<path style="fill:#FFA0C1;" d="M357.144,147.5C452.601,253.008,409.525,442.982,256,442.982S59.399,253.008,154.855,147.5
	L357.144,147.5L357.144,147.5z"/>
<path style="opacity:0.1;enable-background:new    ;" d="M187.991,147.5h-33.135C59.4,253.008,102.475,442.982,256.001,442.982
	c5.675,0,11.195-0.266,16.568-0.772C132.618,429.046,96.062,249.108,187.991,147.5z"/>
<path style="fill:#DDE1ED;" d="M360.236,125.254L360.236,125.254L360.236,125.254c31.754-17.242,16.023-65.659-19.801-60.943l0,0
	l0,0c15.555-32.615-25.63-62.537-51.842-37.665l0,0l0,0c-6.586-35.528-57.494-35.528-64.08,0l0,0l0,0
	c-26.211-24.872-67.397,5.051-51.842,37.665l0,0l0,0c-35.824-4.715-51.556,43.701-19.801,60.943l0,0l0,0
	c-31.754,17.242-16.023,65.658,19.801,60.943l0,0l0,0c-15.555,32.615,25.63,62.537,51.842,37.666l0,0l0,0
	c6.586,35.528,57.494,35.528,64.08,0l0,0l0,0c26.211,24.872,67.397-5.051,51.842-37.666l0,0l0,0
	C376.259,190.913,391.99,142.497,360.236,125.254z"/>
<g>
	<circle style="fill:#43434D;" cx="180" cy="265.057" r="14.491"/>
	<circle style="fill:#43434D;" cx="332.034" cy="265.057" r="14.491"/>
	<path style="fill:#43434D;" d="M319.409,343.045c-1.819-4.198-6.697-6.126-10.895-4.306c-13.697,5.936-24.493,6.803-32.089,2.58
		c-5.078-2.824-8.131-7.635-9.914-11.729c5.363-2.097,10.045-5.785,13.352-10.705c2.552-3.797,1.543-8.944-2.253-11.497
		c-3.797-2.553-8.944-1.544-11.497,2.253c-2.255,3.357-6.031,5.36-10.1,5.36c-4.041,0-7.802-1.983-10.062-5.305
		c-2.574-3.782-7.727-4.764-11.508-2.189c-3.783,2.573-4.764,7.726-2.189,11.508c3.302,4.853,7.954,8.494,13.272,10.573
		c-1.769,4.068-4.797,8.843-9.828,11.678c-7.601,4.282-18.43,3.432-32.182-2.528c-4.198-1.819-9.076,0.109-10.895,4.306
		c-1.818,4.198,0.109,9.076,4.306,10.895c10.114,4.383,19.359,6.575,27.67,6.575c7.109,0,13.535-1.605,19.232-4.813
		c5.292-2.981,9.245-6.994,12.185-11.15c2.94,4.156,6.893,8.168,12.185,11.15c12.358,6.963,28.138,6.371,46.902-1.761
		C319.3,352.121,321.228,347.243,319.409,343.045z"/>
</g>
</svg>